<svg width="32" height="32" viewBox="0 0 32 32" fill="none" xmlns="http://www.w3.org/2000/svg">
<path d="M28.7067 14.4933L26.68 12.4667C26.3333 12.12 26.0533 11.44 26.0533 10.96V8.08001C26.0533 6.90667 25.0933 5.94667 23.92 5.94667H21.0533C20.5733 5.94667 19.8933 5.66667 19.5467 5.32001L17.52 3.29334C16.6933 2.46667 15.3333 2.46667 14.5067 3.29334L12.4533 5.32001C12.12 5.66667 11.44 5.94667 10.9467 5.94667H8.08001C6.90667 5.94667 5.94667 6.90667 5.94667 8.08001V10.9467C5.94667 11.4267 5.66667 12.1067 5.32001 12.4533L3.29334 14.48C2.46667 15.3067 2.46667 16.6667 3.29334 17.4933L5.32001 19.52C5.66667 19.8667 5.94667 20.5467 5.94667 21.0267V23.8933C5.94667 25.0667 6.90667 26.0267 8.08001 26.0267H10.9467C11.4267 26.0267 12.1067 26.3067 12.4533 26.6533L14.48 28.68C15.3067 29.5067 16.6667 29.5067 17.4933 28.68L19.52 26.6533C19.8667 26.3067 20.5467 26.0267 21.0267 26.0267H23.8933C25.0667 26.0267 26.0267 25.0667 26.0267 23.8933V21.0267C26.0267 20.5467 26.3067 19.8667 26.6533 19.52L28.68 17.4933C29.5467 16.68 29.5467 15.32 28.7067 14.4933ZM10.6667 12C10.6667 11.2667 11.2667 10.6667 12 10.6667C12.7333 10.6667 13.3333 11.2667 13.3333 12C13.3333 12.7333 12.7467 13.3333 12 13.3333C11.2667 13.3333 10.6667 12.7333 10.6667 12ZM12.7067 20.7067C12.5067 20.9067 12.2533 21 12 21C11.7467 21 11.4933 20.9067 11.2933 20.7067C10.9067 20.32 10.9067 19.68 11.2933 19.2933L19.2933 11.2933C19.68 10.9067 20.32 10.9067 20.7067 11.2933C21.0933 11.68 21.0933 12.32 20.7067 12.7067L12.7067 20.7067ZM20 21.3333C19.2533 21.3333 18.6533 20.7333 18.6533 20C18.6533 19.2667 19.2533 18.6667 19.9867 18.6667C20.72 18.6667 21.32 19.2667 21.32 20C21.32 20.7333 20.7333 21.3333 20 21.3333Z" fill="currentColor"/>
</svg>
