<svg width="20" height="20" viewBox="0 0 20 20" fill="none" xmlns="http://www.w3.org/2000/svg">
<path d="M10 0C11.875 0.0260417 13.5547 0.481771 15.0391 1.36719C16.5495 2.2526 17.7474 3.45052 18.6328 4.96094C19.5182 6.44531 19.974 8.125 20 10C19.974 11.875 19.5182 13.5547 18.6328 15.0391C17.7474 16.5495 16.5495 17.7474 15.0391 18.6328C13.5547 19.5182 11.875 19.974 10 20C8.125 19.974 6.44531 19.5182 4.96094 18.6328C3.45052 17.7474 2.2526 16.5495 1.36719 15.0391C0.481771 13.5547 0.0260417 11.875 0 10C0.0260417 8.125 0.481771 6.44531 1.36719 4.96094C2.2526 3.45052 3.45052 2.2526 4.96094 1.36719C6.44531 0.481771 8.125 0.0260417 10 0ZM10 15.625C10.3385 15.625 10.625 15.5078 10.8594 15.2734C11.1198 15.0391 11.25 14.7396 11.25 14.375C11.25 14.0104 11.1198 13.7109 10.8594 13.4766C10.625 13.2422 10.3385 13.125 10 13.125C9.21875 13.2031 8.80208 13.6198 8.75 14.375C8.75 14.7396 8.86719 15.0391 9.10156 15.2734C9.33594 15.5078 9.63542 15.625 10 15.625ZM12.6953 10.0781C13.5807 9.50521 14.0365 8.72396 14.0625 7.73438C14.0365 6.95312 13.763 6.30208 13.2422 5.78125C12.7214 5.28646 12.0573 5.02604 11.25 5H9.25781C8.5026 5.02604 7.86458 5.28646 7.34375 5.78125C6.84896 6.30208 6.58854 6.95312 6.5625 7.73438C6.61458 8.30729 6.92708 8.61979 7.5 8.67188C8.07292 8.61979 8.38542 8.30729 8.4375 7.73438C8.46354 7.21354 8.75 6.92708 9.29688 6.875H11.2891C11.8359 6.92708 12.1354 7.21354 12.1875 7.73438C12.1875 8.07292 12.0443 8.32031 11.7578 8.47656L9.53125 9.80469C9.21875 10.013 9.0625 10.2865 9.0625 10.625V11.25C9.11458 11.8229 9.42708 12.1354 10 12.1875C10.5729 12.1354 10.8854 11.8229 10.9375 11.25V11.1719L12.6953 10.0781Z" fill="currentColor"/>
</svg>
