<svg width="390" height="251" viewBox="0 0 390 251" fill="none" xmlns="http://www.w3.org/2000/svg">
<g filter="url(#filter0_f_438_297)">
<ellipse cx="213" cy="134.5" rx="119" ry="58.5" fill="#2557F7"/>
</g>
<g filter="url(#filter1_d_438_297)">
<g clip-path="url(#clip0_438_297)">
<rect width="138.76" height="84.5322" rx="6.37979" transform="matrix(0.913545 -0.406737 0.659347 0.751838 115.84 109.41)" fill="#5B82FF"/>
<path d="M140.073 119.674C139.508 119.925 138.936 120.066 138.356 120.095C137.776 120.124 137.227 120.042 136.708 119.848C136.192 119.644 135.748 119.331 135.377 118.907L135.238 118.749L136.61 118.138L136.718 118.261C137.007 118.591 137.378 118.793 137.832 118.869C138.281 118.939 138.734 118.872 139.191 118.669C139.655 118.462 139.933 118.212 140.023 117.918C140.12 117.621 140.048 117.335 139.805 117.058L139.728 116.97C139.563 116.782 139.372 116.655 139.154 116.588C138.937 116.521 138.709 116.504 138.469 116.537C138.225 116.564 137.981 116.632 137.738 116.74L136.238 117.408L135.155 116.173L136.649 114.037L136.525 113.896L132.732 115.585L131.85 114.579L137.165 112.213L138.48 113.712L137.085 115.707L137.209 115.848L137.605 115.671C137.941 115.522 138.315 115.433 138.728 115.405C139.147 115.373 139.563 115.429 139.977 115.572C140.385 115.709 140.752 115.963 141.077 116.333L141.169 116.439C141.52 116.839 141.709 117.241 141.736 117.646C141.758 118.045 141.627 118.422 141.343 118.778C141.061 119.124 140.637 119.423 140.073 119.674ZM149.055 115.503L147.957 114.251L144.271 115.892L143.126 114.587L142.548 109.816L145.013 108.719L148.447 112.635L149.69 112.081L150.572 113.087L149.329 113.64L150.427 114.892L149.055 115.503ZM144.696 114.305L147.075 113.245L144.275 110.053L144.082 110.139L144.572 114.163L144.696 114.305ZM154.83 113.104C154.244 113.365 153.662 113.505 153.084 113.526C152.513 113.543 151.976 113.446 151.474 113.237C150.972 113.027 150.541 112.716 150.18 112.304L150.103 112.216L151.496 111.596L151.565 111.675C151.823 111.969 152.163 112.17 152.584 112.276C153.008 112.374 153.455 112.318 153.927 112.108C154.398 111.898 154.669 111.634 154.738 111.317C154.81 110.991 154.699 110.661 154.405 110.325L154.327 110.237C154.039 109.908 153.681 109.704 153.253 109.624C152.833 109.541 152.434 109.584 152.055 109.753C151.848 109.845 151.697 109.945 151.602 110.052C151.508 110.16 151.449 110.268 151.425 110.377C151.401 110.485 151.392 110.588 151.396 110.684L149.735 111.423L146.703 107.966L151.826 105.685L152.723 106.709L148.972 108.378L150.295 109.887L150.488 109.801C150.492 109.692 150.524 109.576 150.584 109.451C150.643 109.327 150.749 109.198 150.9 109.065C151.052 108.932 151.26 108.807 151.524 108.689C151.967 108.492 152.438 108.389 152.937 108.379C153.435 108.37 153.923 108.467 154.4 108.672C154.879 108.867 155.31 109.183 155.691 109.618L155.784 109.723C156.166 110.159 156.381 110.586 156.431 111.005C156.488 111.421 156.383 111.811 156.117 112.175C155.845 112.533 155.416 112.843 154.83 113.104ZM161.437 109.991L160.338 108.738L156.652 110.38L155.507 109.074L154.929 104.304L157.394 103.206L160.828 107.122L162.071 106.569L162.953 107.574L161.71 108.128L162.808 109.38L161.437 109.991ZM157.077 108.792L159.456 107.733L156.657 104.54L156.464 104.626L156.954 108.651L157.077 108.792ZM169.728 106.471C168.842 106.865 167.956 106.982 167.07 106.82C166.178 106.653 165.374 106.161 164.657 105.344L163.296 103.791C162.6 102.998 162.339 102.276 162.514 101.626C162.684 100.97 163.212 100.444 164.098 100.05C164.991 99.6523 165.885 99.5446 166.779 99.7266C167.676 99.8997 168.473 100.383 169.169 101.177L170.53 102.729C171.247 103.546 171.515 104.277 171.335 104.921C171.157 105.557 170.621 106.073 169.728 106.471ZM168.847 105.465C169.382 105.227 169.67 104.931 169.708 104.579C169.754 104.223 169.581 103.822 169.189 103.375L167.751 101.735C167.354 101.282 166.912 101.004 166.425 100.902C165.94 100.791 165.458 100.842 164.979 101.055C164.486 101.275 164.206 101.567 164.139 101.932C164.079 102.294 164.24 102.693 164.621 103.128L166.06 104.768C166.467 105.233 166.903 105.525 167.366 105.646C167.832 105.758 168.325 105.697 168.847 105.465ZM176.249 103.568C175.363 103.962 174.477 104.079 173.59 103.917C172.699 103.75 171.894 103.258 171.178 102.441L169.816 100.888C169.12 100.095 168.86 99.3727 169.034 98.7226C169.204 98.0666 169.732 97.5414 170.618 97.1469C171.511 96.7493 172.405 96.6416 173.3 96.8236C174.196 96.9967 174.993 97.48 175.689 98.2738L177.05 99.826C177.767 100.643 178.035 101.374 177.855 102.018C177.677 102.654 177.142 103.17 176.249 103.568ZM175.367 102.562C175.903 102.324 176.19 102.028 176.229 101.676C176.274 101.32 176.101 100.919 175.709 100.472L174.271 98.8316C173.874 98.3789 173.432 98.1015 172.945 97.9994C172.46 97.8882 171.978 97.9392 171.5 98.1524C171.007 98.3718 170.727 98.6641 170.659 99.0293C170.599 99.3912 170.76 99.7897 171.142 100.225L172.58 101.865C172.988 102.33 173.423 102.622 173.886 102.743C174.352 102.855 174.845 102.794 175.367 102.562ZM182.769 100.665C181.883 101.059 180.997 101.176 180.11 101.014C179.219 100.847 178.415 100.355 177.698 99.5377L176.337 97.9854C175.641 97.1917 175.38 96.4697 175.555 95.8196C175.724 95.1636 176.252 94.6383 177.138 94.2439C178.031 93.8463 178.925 93.7386 179.82 93.9206C180.717 94.0936 181.513 94.577 182.209 95.3708L183.57 96.923C184.287 97.7403 184.556 98.4711 184.376 99.1153C184.197 99.7505 183.662 100.267 182.769 100.665ZM181.887 99.6591C182.423 99.4205 182.71 99.1251 182.749 98.7727C182.795 98.4171 182.622 98.0159 182.23 97.569L180.791 95.9286C180.394 95.4758 179.952 95.1984 179.465 95.0964C178.98 94.9852 178.499 95.0362 178.02 95.2493C177.527 95.4688 177.247 95.7611 177.18 96.1262C177.12 96.4882 177.28 96.8867 177.662 97.3218L179.101 98.9622C179.508 99.4267 179.943 99.7193 180.407 99.84C180.872 99.9516 181.366 99.8913 181.887 99.6591ZM187.341 96.7649L186.552 95.8653L187.538 95.4264L187.12 94.9501L186.134 95.3891L185.345 94.4895L186.331 94.0505L183.98 91.3694L187.109 89.9762C187.574 89.7694 188.043 89.6587 188.517 89.6439C188.998 89.626 189.454 89.7048 189.886 89.8803C190.313 90.05 190.681 90.3112 190.991 90.664L191.099 90.7874C191.408 91.1402 191.573 91.4921 191.592 91.843C191.619 92.1908 191.516 92.5148 191.283 92.8149C191.044 93.1092 190.7 93.3565 190.249 93.5569L188.535 94.3203L188.953 94.7966L191.332 93.7373L192.12 94.6369L189.741 95.6962L190.809 96.9132L189.394 97.5431L188.327 96.326L187.341 96.7649ZM187.746 93.4207L189.321 92.7194C189.643 92.5762 189.844 92.3925 189.926 92.1682C190.002 91.938 189.937 91.7053 189.731 91.4702L189.653 91.382C189.442 91.1409 189.177 90.9973 188.858 90.9511C188.547 90.9018 188.227 90.9502 187.898 91.0966L186.323 91.7979L187.746 93.4207Z" fill="white"/>
<path d="M167.051 175.766L154.184 161.095L168.291 154.814L181.157 169.485L177.387 171.164L166.791 159.082L160.225 162.005L170.821 174.087L167.051 175.766ZM194.383 153.368C195.381 154.505 196.113 155.617 196.58 156.704C197.052 157.77 197.233 158.795 197.123 159.777C197.029 160.752 196.597 161.659 195.828 162.497C195.075 163.327 193.974 164.065 192.526 164.709C191.078 165.354 189.657 165.739 188.262 165.865C186.873 165.969 185.54 165.848 184.264 165.502C182.993 165.135 181.774 164.563 180.608 163.787C179.458 163.004 178.385 162.044 177.388 160.907C176.054 159.386 175.194 157.931 174.809 156.541C174.439 155.143 174.609 153.858 175.316 152.686C176.029 151.493 177.359 150.462 179.306 149.595C181.237 148.736 183.103 148.343 184.904 148.417C186.693 148.478 188.385 148.943 189.982 149.814C191.583 150.663 193.05 151.848 194.383 153.368ZM181.375 159.16C182.276 160.187 183.209 161 184.174 161.599C185.139 162.198 186.129 162.548 187.143 162.649C188.157 162.75 189.189 162.567 190.237 162.1C191.319 161.618 192.011 161.034 192.311 160.348C192.629 159.654 192.613 158.871 192.264 157.998C191.931 157.117 191.315 156.163 190.414 155.136C189.056 153.588 187.643 152.531 186.175 151.966C184.708 151.4 183.175 151.473 181.577 152.184C180.511 152.659 179.82 153.243 179.503 153.936C179.185 154.63 179.193 155.417 179.525 156.298C179.858 157.178 180.474 158.132 181.375 159.16ZM201.923 139.84L204.175 142.409L196.685 145.744L207.299 157.846L203.529 159.525L190.662 144.854L201.923 139.84ZM225.681 149.662L221.319 146.747L214.827 149.637L216.593 153.708L212.523 155.52L205.894 137.986L210.513 135.93L229.75 147.85L225.681 149.662ZM213.842 141.705C213.554 141.509 213.188 141.263 212.742 140.966C212.297 140.669 211.845 140.365 211.388 140.054C210.93 139.744 210.54 139.47 210.216 139.233C210.373 139.544 210.557 139.939 210.768 140.416C210.983 140.873 211.186 141.316 211.377 141.745C211.573 142.153 211.704 142.447 211.77 142.627L213.488 146.605L218.132 144.538L213.842 141.705ZM253.43 137.307L231.009 147.29L218.143 132.618L221.913 130.94L232.509 143.022L238.052 140.554L227.456 128.472L231.251 126.782L241.847 138.865L247.39 136.397L236.794 124.315L240.564 122.636L253.43 137.307ZM267.19 131.181L256.929 135.75L244.062 121.078L254.324 116.51L256.559 119.058L250.067 121.948L252.896 125.174L258.938 122.484L261.173 125.032L255.131 127.722L258.446 131.503L264.938 128.612L267.19 131.181ZM284.507 123.471L280.737 125.149L275.187 118.821L268.121 121.967L273.671 128.295L269.901 129.974L257.035 115.303L260.805 113.624L265.851 119.378L272.916 116.232L267.871 110.478L271.641 108.8L284.507 123.471ZM297.722 107.359C298.719 108.496 299.451 109.608 299.918 110.695C300.39 111.761 300.571 112.786 300.461 113.768C300.367 114.743 299.935 115.65 299.166 116.487C298.413 117.318 297.312 118.055 295.864 118.7C294.416 119.345 292.995 119.73 291.6 119.856C290.211 119.96 288.878 119.839 287.602 119.493C286.331 119.125 285.112 118.554 283.946 117.778C282.796 116.995 281.723 116.035 280.726 114.898C279.392 113.377 278.532 111.922 278.147 110.532C277.777 109.134 277.947 107.849 278.654 106.677C279.367 105.484 280.697 104.453 282.644 103.586C284.575 102.727 286.441 102.334 288.242 102.408C290.031 102.469 291.723 102.934 293.32 103.805C294.921 104.654 296.388 105.839 297.722 107.359ZM284.713 113.151C285.614 114.178 286.547 114.991 287.512 115.59C288.477 116.189 289.467 116.539 290.481 116.64C291.495 116.741 292.527 116.558 293.575 116.091C294.657 115.609 295.349 115.025 295.649 114.339C295.967 113.645 295.951 112.862 295.602 111.988C295.269 111.108 294.653 110.154 293.752 109.127C292.394 107.579 290.981 106.522 289.513 105.956C288.046 105.391 286.513 105.464 284.915 106.175C283.849 106.65 283.158 107.234 282.841 107.927C282.523 108.621 282.531 109.408 282.863 110.289C283.196 111.169 283.812 112.123 284.713 113.151Z" fill="white"/>
<g opacity="0.4" filter="url(#filter2_d_438_297)">
<path d="M213.519 80.5297L210.39 76.9622L211.059 76.6644L214.188 80.2319L213.519 80.5297ZM215.568 79.6173L212.337 77.5625L213.012 77.262L215.687 79.026L215.786 78.9819L214.733 76.4955L215.408 76.195L216.584 79.1652L215.568 79.6173ZM218.908 78.2294C218.689 78.3268 218.466 78.3836 218.239 78.3996C218.016 78.4138 217.801 78.3844 217.594 78.3115C217.39 78.2367 217.214 78.1143 217.065 77.9445C216.913 77.7712 216.838 77.6064 216.838 77.4502C216.84 77.2887 216.903 77.1405 217.025 77.0056C217.152 76.8688 217.327 76.7507 217.55 76.6515L218.479 76.2379L218.336 76.0748C218.208 75.9287 218.051 75.8354 217.867 75.7949C217.682 75.7543 217.478 75.7837 217.255 75.8829C217.036 75.9803 216.906 76.0973 216.865 76.2337C216.824 76.3701 216.844 76.5145 216.926 76.6669L216.193 76.7736C216.124 76.6157 216.095 76.4584 216.107 76.3019C216.12 76.1402 216.188 75.9849 216.31 75.8361C216.432 75.6872 216.621 75.5558 216.877 75.4419C217.273 75.2654 217.658 75.2099 218.031 75.2753C218.404 75.3407 218.725 75.5263 218.993 75.832L219.9 76.8666C219.989 76.9685 220.092 76.9938 220.207 76.9423L220.468 76.8265L220.852 77.2648L220.375 77.4771C220.231 77.5414 220.086 77.5632 219.942 77.5425C219.797 77.5218 219.679 77.4588 219.586 77.3534L219.573 77.3381L219.48 77.3795C219.492 77.4452 219.494 77.5267 219.488 77.624C219.481 77.7214 219.437 77.8241 219.353 77.932C219.267 78.0365 219.119 78.1357 218.908 78.2294ZM218.621 77.7549C218.877 77.6409 219.031 77.4896 219.084 77.3008C219.134 77.1086 219.066 76.9072 218.881 76.6966L218.837 76.6456L217.945 77.0426C217.776 77.118 217.666 77.2092 217.617 77.3163C217.564 77.4201 217.588 77.5297 217.69 77.6452C217.791 77.7607 217.925 77.8285 218.092 77.8487C218.259 77.8689 218.435 77.8376 218.621 77.7549ZM221.224 77.099L219.021 74.5865L219.646 74.308L219.977 74.6851L220.076 74.641C220.045 74.5133 220.064 74.3723 220.136 74.2178C220.207 74.0632 220.389 73.9207 220.682 73.7902C220.913 73.6873 221.155 73.6388 221.407 73.6447C221.663 73.6488 221.911 73.706 222.151 73.8163C222.389 73.9232 222.603 74.0854 222.793 74.3029L224.116 75.8114L223.478 76.0954L222.191 74.6276C222.001 74.4102 221.794 74.2799 221.573 74.2368C221.348 74.1903 221.121 74.2185 220.889 74.3214C220.625 74.4391 220.475 74.6051 220.439 74.8195C220.408 75.032 220.511 75.2742 220.749 75.546L221.862 76.815L221.224 77.099ZM226.099 74.9288L222.97 71.3614L223.639 71.0636L226.767 74.6311L226.099 74.9288ZM228.148 74.0165L224.916 71.9617L225.591 71.6611L228.266 73.4251L228.365 73.381L227.313 70.8947L227.988 70.5941L229.163 73.5643L228.148 74.0165ZM231.488 72.6286C231.269 72.726 231.046 72.7827 230.819 72.7988C230.596 72.813 230.381 72.7836 230.173 72.7106C229.97 72.6358 229.794 72.5135 229.645 72.3436C229.493 72.1703 229.417 72.0056 229.418 71.8493C229.42 71.6879 229.482 71.5397 229.605 71.4047C229.732 71.2679 229.907 71.1499 230.13 71.0506L231.059 70.6371L230.916 70.474C230.788 70.3279 230.631 70.2346 230.446 70.194C230.261 70.1535 230.058 70.1828 229.835 70.2821C229.616 70.3795 229.486 70.4964 229.445 70.6328C229.404 70.7692 229.424 70.9136 229.506 71.0661L228.773 71.1728C228.704 71.0148 228.675 70.8576 228.687 70.7011C228.7 70.5393 228.767 70.384 228.889 70.2352C229.012 70.0864 229.201 69.955 229.456 69.841C229.853 69.6646 230.238 69.6091 230.611 69.6744C230.984 69.7398 231.304 69.9254 231.572 70.2312L232.48 71.2658C232.569 71.3677 232.672 71.3929 232.787 71.3415L233.047 71.2257L233.432 71.6639L232.955 71.8762C232.81 71.9406 232.666 71.9624 232.521 71.9417C232.377 71.9209 232.258 71.8579 232.166 71.7526L232.153 71.7373L232.06 71.7787C232.072 71.8443 232.074 71.9258 232.068 72.0232C232.061 72.1206 232.016 72.2232 231.933 72.3312C231.847 72.4357 231.698 72.5348 231.488 72.6286ZM231.201 72.154C231.457 72.0401 231.611 71.8887 231.664 71.7C231.713 71.5078 231.646 71.3064 231.461 71.0957L231.416 71.0448L230.525 71.4418C230.355 71.5172 230.246 71.6084 230.196 71.7155C230.144 71.8192 230.168 71.9288 230.269 72.0443C230.371 72.1599 230.505 72.2277 230.672 72.2479C230.839 72.268 231.015 72.2367 231.201 72.154ZM233.804 71.4981L231.601 68.9856L232.226 68.7071L232.557 69.0843L232.656 69.0402C232.624 68.9125 232.644 68.7714 232.715 68.6169C232.786 68.4624 232.969 68.3199 233.262 68.1894C233.493 68.0865 233.734 68.038 233.986 68.0439C234.243 68.0479 234.491 68.1051 234.731 68.2155C234.968 68.3224 235.182 68.4846 235.373 68.702L236.696 70.2106L236.058 70.4945L234.771 69.0268C234.58 68.8093 234.374 68.6791 234.153 68.636C233.928 68.5894 233.7 68.6177 233.469 68.7206C233.205 68.8382 233.055 69.0042 233.019 69.2186C232.987 69.4312 233.091 69.6733 233.329 69.9451L234.442 71.2141L233.804 71.4981ZM238.859 69.3466C238.554 69.4826 238.237 69.553 237.908 69.5577C237.58 69.5571 237.263 69.4903 236.957 69.3573C236.651 69.2243 236.382 69.0253 236.149 68.7603L236.082 68.6838C235.85 68.4188 235.718 68.1609 235.688 67.9099C235.654 67.6556 235.709 67.4234 235.852 67.2133C235.999 67.0014 236.225 66.8274 236.531 66.6914C236.836 66.5554 237.155 66.4867 237.487 66.4855C237.818 66.4842 238.137 66.55 238.443 66.683C238.747 66.8127 239.014 67.01 239.247 67.275L239.314 67.3514C239.546 67.6164 239.679 67.8761 239.713 68.1304C239.746 68.3847 239.69 68.6179 239.543 68.8298C239.393 69.0383 239.165 69.2106 238.859 69.3466ZM238.448 68.8777C238.729 68.7528 238.892 68.5786 238.937 68.3553C238.983 68.1268 238.892 67.8817 238.663 67.6201L238.622 67.5742C238.393 67.3126 238.127 67.1474 237.826 67.0785C237.521 67.0062 237.227 67.0334 236.942 67.1603C236.665 67.2834 236.504 67.4593 236.457 67.6878C236.412 67.9111 236.504 68.1535 236.734 68.4152L236.774 68.461C237.003 68.7226 237.27 68.8896 237.575 68.9619C237.88 69.0289 238.171 69.0009 238.448 68.8777ZM241.525 68.0603L238.294 66.0055L238.969 65.705L241.644 67.469L241.743 67.4249L240.691 64.9385L241.366 64.638L242.541 67.6082L241.525 68.0603Z" fill="white"/>
</g>
<line y1="-0.488774" x2="68.4284" y2="-0.488774" transform="matrix(0.913545 -0.406737 0.659347 0.751838 132.363 119.588)" stroke="#5B82FF" stroke-width="0.977548"/>
<line y1="-0.488774" x2="68.4284" y2="-0.488774" transform="matrix(0.913545 -0.406737 0.659347 0.751838 132.363 119.588)" stroke="#5B82FF" stroke-width="0.977548"/>
<line y1="-0.488774" x2="68.4284" y2="-0.488774" transform="matrix(0.913545 -0.406737 0.659347 0.751838 131.074 118.118)" stroke="#5B82FF" stroke-width="0.977548"/>
<line y1="-0.488774" x2="68.4284" y2="-0.488774" transform="matrix(0.913545 -0.406737 0.659347 0.751838 131.074 118.118)" stroke="#5B82FF" stroke-width="0.977548"/>
<line y1="-0.488774" x2="68.4284" y2="-0.488774" transform="matrix(0.913545 -0.406737 0.659347 0.751838 131.718 118.853)" stroke="white" stroke-width="0.977548"/>
</g>
<rect x="0.313585" y="0.0688023" width="138.362" height="84.1334" rx="6.18042" transform="matrix(0.913545 -0.406737 0.659347 0.751838 115.822 109.555)" stroke="url(#paint0_radial_438_297)" stroke-width="0.398737"/>
<rect x="0.313585" y="0.0688023" width="138.362" height="84.1334" rx="6.18042" transform="matrix(0.913545 -0.406737 0.659347 0.751838 115.822 109.555)" stroke="url(#paint1_radial_438_297)" stroke-width="0.398737"/>
<rect x="0.313585" y="0.0688023" width="138.362" height="84.1334" rx="6.18042" transform="matrix(0.913545 -0.406737 0.659347 0.751838 115.822 109.555)" stroke="url(#paint2_radial_438_297)" stroke-width="0.398737"/>
</g>
<g filter="url(#filter3_f_438_297)">
<ellipse cx="167" cy="94.5" rx="101" ry="28.5" fill="white" fill-opacity="0.4"/>
</g>
<defs>
<filter id="filter0_f_438_297" x="36.3999" y="18.3999" width="353.2" height="232.2" filterUnits="userSpaceOnUse" color-interpolation-filters="sRGB">
<feFlood flood-opacity="0" result="BackgroundImageFix"/>
<feBlend mode="normal" in="SourceGraphic" in2="BackgroundImageFix" result="shape"/>
<feGaussianBlur stdDeviation="28.8" result="effect1_foregroundBlur_438_297"/>
</filter>
<filter id="filter1_d_438_297" x="72.9927" y="31.5475" width="255.952" height="193.446" filterUnits="userSpaceOnUse" color-interpolation-filters="sRGB">
<feFlood flood-opacity="0" result="BackgroundImageFix"/>
<feColorMatrix in="SourceAlpha" type="matrix" values="0 0 0 0 0 0 0 0 0 0 0 0 0 0 0 0 0 0 127 0" result="hardAlpha"/>
<feOffset dx="-6.12102" dy="15.3025"/>
<feGaussianBlur stdDeviation="18.363"/>
<feComposite in2="hardAlpha" operator="out"/>
<feColorMatrix type="matrix" values="0 0 0 0 0 0 0 0 0 0 0 0 0 0 0 0 0 0 0.3 0"/>
<feBlend mode="normal" in2="BackgroundImageFix" result="effect1_dropShadow_438_297"/>
<feBlend mode="normal" in="SourceGraphic" in2="effect1_dropShadow_438_297" result="shape"/>
</filter>
<filter id="filter2_d_438_297" x="209.992" y="63.5831" width="34.0387" height="18.2142" filterUnits="userSpaceOnUse" color-interpolation-filters="sRGB">
<feFlood flood-opacity="0" result="BackgroundImageFix"/>
<feColorMatrix in="SourceAlpha" type="matrix" values="0 0 0 0 0 0 0 0 0 0 0 0 0 0 0 0 0 0 127 0" result="hardAlpha"/>
<feOffset dy="0.797473"/>
<feGaussianBlur stdDeviation="0.199368"/>
<feComposite in2="hardAlpha" operator="out"/>
<feColorMatrix type="matrix" values="0 0 0 0 0 0 0 0 0 0 0 0 0 0 0 0 0 0 0.25 0"/>
<feBlend mode="normal" in2="BackgroundImageFix" result="effect1_dropShadow_438_297"/>
<feBlend mode="normal" in="SourceGraphic" in2="effect1_dropShadow_438_297" result="shape"/>
</filter>
<filter id="filter3_f_438_297" x="0.400002" y="0.400002" width="333.2" height="188.2" filterUnits="userSpaceOnUse" color-interpolation-filters="sRGB">
<feFlood flood-opacity="0" result="BackgroundImageFix"/>
<feBlend mode="normal" in="SourceGraphic" in2="BackgroundImageFix" result="shape"/>
<feGaussianBlur stdDeviation="32.8" result="effect1_foregroundBlur_438_297"/>
</filter>
<radialGradient id="paint0_radial_438_297" cx="0" cy="0" r="1" gradientUnits="userSpaceOnUse" gradientTransform="translate(168.311 31.9453) rotate(174.425) scale(227.633 57.6853)">
<stop stop-color="white"/>
<stop offset="1" stop-color="white" stop-opacity="0"/>
</radialGradient>
<radialGradient id="paint1_radial_438_297" cx="0" cy="0" r="1" gradientUnits="userSpaceOnUse" gradientTransform="translate(-12.4199 -49.1466) rotate(30.6396) scale(133.401 80.5945)">
<stop stop-color="white"/>
<stop offset="1" stop-color="white" stop-opacity="0"/>
</radialGradient>
<radialGradient id="paint2_radial_438_297" cx="0" cy="0" r="1" gradientUnits="userSpaceOnUse" gradientTransform="translate(-55.6755 114.184) rotate(-5.33944) scale(170.765 43.0876)">
<stop stop-color="white"/>
<stop offset="1" stop-color="white" stop-opacity="0"/>
</radialGradient>
<clipPath id="clip0_438_297">
<rect width="138.76" height="84.5322" rx="6.37979" transform="matrix(0.913545 -0.406737 0.659347 0.751838 115.84 109.41)" fill="white"/>
</clipPath>
</defs>
</svg>
