<svg width="390" height="251" viewBox="0 0 390 251" fill="none" xmlns="http://www.w3.org/2000/svg">
<g filter="url(#filter0_f_438_299)">
<ellipse cx="213" cy="134.535" rx="119" ry="58.5" fill="#28906F"/>
<ellipse cx="213" cy="134.535" rx="119" ry="58.5" fill="url(#paint0_linear_438_299)"/>
</g>
<g filter="url(#filter1_d_438_299)">
<g clip-path="url(#clip0_438_299)">
<rect width="138.768" height="84.5368" rx="6.38013" transform="matrix(0.913545 -0.406737 0.659347 0.751838 115.84 109.442)" fill="url(#paint1_linear_438_299)"/>
<g filter="url(#filter2_f_438_299)">
<path d="M216.753 153.878C181.562 172.153 145.005 174.776 139.741 174.146L162.251 199.813L332.973 123.803L299.476 85.607C295.875 103.781 251.945 135.604 216.753 153.878Z" fill="url(#paint2_linear_438_299)"/>
</g>
<path d="M140.074 119.706C139.509 119.957 138.937 120.098 138.357 120.127C137.776 120.157 137.227 120.074 136.709 119.88C136.193 119.676 135.749 119.363 135.378 118.939L135.239 118.781L136.61 118.17L136.719 118.293C137.007 118.623 137.379 118.825 137.833 118.901C138.282 118.971 138.735 118.904 139.192 118.701C139.656 118.494 139.934 118.244 140.024 117.95C140.121 117.653 140.049 117.367 139.806 117.09L139.729 117.002C139.564 116.814 139.373 116.687 139.155 116.62C138.938 116.553 138.709 116.536 138.47 116.569C138.226 116.596 137.982 116.664 137.739 116.772L136.239 117.44L135.156 116.205L136.65 114.069L136.526 113.927L132.732 115.617L131.85 114.611L137.166 112.244L138.481 113.744L137.086 115.738L137.21 115.88L137.606 115.703C137.942 115.554 138.316 115.465 138.728 115.436C139.148 115.405 139.564 115.461 139.978 115.604C140.386 115.741 140.753 115.995 141.077 116.365L141.17 116.471C141.521 116.871 141.71 117.273 141.737 117.678C141.759 118.077 141.628 118.454 141.344 118.81C141.061 119.156 140.638 119.455 140.074 119.706ZM149.057 115.535L147.958 114.283L144.272 115.924L143.127 114.619L142.549 109.848L145.014 108.75L148.448 112.666L149.691 112.113L150.573 113.118L149.33 113.672L150.428 114.924L149.057 115.535ZM144.697 114.336L147.076 113.277L144.276 110.084L144.083 110.17L144.574 114.195L144.697 114.336ZM154.831 113.136C154.246 113.396 153.663 113.537 153.085 113.557C152.514 113.574 151.978 113.478 151.476 113.268C150.974 113.058 150.542 112.748 150.181 112.336L150.104 112.248L151.497 111.628L151.567 111.707C151.825 112.001 152.164 112.201 152.586 112.308C153.009 112.406 153.457 112.35 153.928 112.14C154.4 111.93 154.67 111.666 154.74 111.349C154.811 111.023 154.7 110.692 154.406 110.357L154.329 110.269C154.04 109.939 153.682 109.735 153.255 109.656C152.835 109.573 152.435 109.616 152.056 109.784C151.849 109.877 151.698 109.976 151.604 110.084C151.509 110.191 151.45 110.3 151.426 110.408C151.402 110.517 151.393 110.619 151.398 110.715L149.737 111.455L146.704 107.998L151.827 105.717L152.724 106.74L148.973 108.41L150.296 109.918L150.489 109.832C150.493 109.724 150.525 109.608 150.585 109.483C150.645 109.358 150.75 109.229 150.902 109.097C151.054 108.964 151.262 108.838 151.526 108.721C151.969 108.523 152.44 108.42 152.938 108.411C153.436 108.401 153.924 108.499 154.402 108.703C154.881 108.899 155.311 109.214 155.693 109.649L155.786 109.755C156.167 110.19 156.383 110.617 156.433 111.037C156.49 111.453 156.385 111.843 156.118 112.207C155.846 112.565 155.417 112.875 154.831 113.136ZM161.438 110.022L160.34 108.77L156.653 110.411L155.509 109.106L154.931 104.335L157.396 103.237L160.83 107.154L162.073 106.6L162.955 107.605L161.712 108.159L162.81 109.411L161.438 110.022ZM157.079 108.824L159.458 107.764L156.658 104.571L156.465 104.657L156.955 108.682L157.079 108.824ZM169.731 106.502C168.845 106.896 167.959 107.013 167.072 106.852C166.18 106.685 165.376 106.192 164.659 105.375L163.298 103.823C162.602 103.029 162.341 102.307 162.516 101.657C162.686 101.001 163.214 100.475 164.1 100.081C164.993 99.6833 165.887 99.5756 166.782 99.7576C167.678 99.9307 168.475 100.414 169.171 101.208L170.532 102.76C171.249 103.578 171.518 104.308 171.337 104.953C171.159 105.588 170.624 106.104 169.731 106.502ZM168.849 105.496C169.385 105.258 169.672 104.962 169.711 104.61C169.757 104.254 169.583 103.853 169.192 103.406L167.753 101.766C167.356 101.313 166.914 101.036 166.427 100.933C165.942 100.822 165.46 100.873 164.982 101.086C164.489 101.306 164.208 101.598 164.141 101.963C164.081 102.325 164.242 102.724 164.624 103.159L166.062 104.8C166.47 105.264 166.905 105.557 167.368 105.677C167.834 105.789 168.327 105.729 168.849 105.496ZM176.251 103.599C175.365 103.993 174.479 104.11 173.593 103.949C172.701 103.781 171.897 103.289 171.18 102.472L169.819 100.919C169.123 100.126 168.862 99.4037 169.037 98.7535C169.207 98.0975 169.734 97.5722 170.62 97.1778C171.513 96.7802 172.407 96.6724 173.302 96.8545C174.199 97.0275 174.996 97.5109 175.692 98.3047L177.053 99.857C177.77 100.674 178.038 101.405 177.858 102.049C177.68 102.685 177.144 103.201 176.251 103.599ZM175.37 102.593C175.905 102.355 176.193 102.059 176.231 101.707C176.277 101.351 176.104 100.95 175.712 100.503L174.273 98.8625C173.876 98.4098 173.434 98.1324 172.948 98.0303C172.463 97.9191 171.981 97.9701 171.502 98.1833C171.009 98.4028 170.729 98.6951 170.662 99.0602C170.602 99.4222 170.763 99.8207 171.144 100.256L172.583 101.896C172.99 102.361 173.426 102.653 173.889 102.774C174.355 102.886 174.848 102.825 175.37 102.593ZM182.772 100.696C181.886 101.09 181 101.207 180.113 101.045C179.222 100.878 178.418 100.386 177.701 99.5686L176.339 98.0163C175.643 97.2225 175.383 96.5005 175.557 95.8504C175.727 95.1943 176.255 94.6691 177.141 94.2746C178.034 93.877 178.928 93.7692 179.823 93.9513C180.72 94.1243 181.516 94.6077 182.212 95.4015L183.574 96.9539C184.29 97.7712 184.559 98.502 184.379 99.1463C184.201 99.7815 183.665 100.298 182.772 100.696ZM181.89 99.6901C182.426 99.4515 182.713 99.156 182.752 98.8036C182.798 98.448 182.625 98.0468 182.233 97.5999L180.794 95.9594C180.397 95.5066 179.955 95.2292 179.468 95.1271C178.983 95.016 178.501 95.067 178.023 95.2801C177.53 95.4996 177.25 95.7919 177.182 96.157C177.122 96.519 177.283 96.9175 177.665 97.3527L179.103 98.9932C179.511 99.4577 179.946 99.7503 180.41 99.871C180.875 99.9826 181.369 99.9223 181.89 99.6901ZM187.344 96.7958L186.555 95.8961L187.541 95.4571L187.124 94.9809L186.138 95.4198L185.349 94.5202L186.335 94.0812L183.983 91.3999L187.113 90.0067C187.577 89.7999 188.046 89.6891 188.52 89.6744C189.001 89.6565 189.458 89.7353 189.89 89.9108C190.317 90.0804 190.685 90.3417 190.994 90.6945L191.102 90.8179C191.412 91.1707 191.576 91.5226 191.596 91.8736C191.623 92.2214 191.52 92.5454 191.286 92.8455C191.047 93.1398 190.703 93.3872 190.253 93.5876L188.538 94.351L188.956 94.8273L191.335 93.768L192.124 94.6677L189.745 95.7269L190.812 96.9441L189.398 97.5739L188.33 96.3568L187.344 96.7958ZM187.749 93.4514L189.325 92.75C189.646 92.6068 189.848 92.4231 189.929 92.1988C190.005 91.9686 189.94 91.7359 189.734 91.5007L189.657 91.4125C189.445 91.1714 189.18 91.0278 188.862 90.9816C188.55 90.9323 188.23 90.9808 187.901 91.1271L186.326 91.8285L187.749 93.4514Z" fill="white"/>
<path d="M167.046 175.798L154.179 161.126L168.286 154.845L181.154 169.517L177.383 171.196L166.787 159.113L160.22 162.037L170.816 174.12L167.046 175.798ZM194.38 153.399C195.378 154.537 196.11 155.649 196.577 156.736C197.049 157.802 197.23 158.826 197.12 159.809C197.026 160.784 196.594 161.69 195.824 162.528C195.071 163.359 193.971 164.096 192.523 164.741C191.075 165.386 189.653 165.771 188.259 165.897C186.869 166.001 185.536 165.88 184.261 165.534C182.989 165.167 181.771 164.595 180.604 163.819C179.454 163.036 178.381 162.075 177.384 160.938C176.05 159.418 175.19 157.962 174.804 156.572C174.435 155.175 174.604 153.89 175.312 152.717C176.025 151.524 177.355 150.494 179.302 149.627C181.233 148.767 183.099 148.374 184.9 148.449C186.689 148.509 188.382 148.975 189.978 149.845C191.579 150.694 193.047 151.879 194.38 153.399ZM181.372 159.191C182.273 160.219 183.206 161.032 184.171 161.631C185.136 162.23 186.125 162.58 187.14 162.681C188.154 162.781 189.185 162.598 190.234 162.132C191.316 161.65 192.007 161.066 192.308 160.379C192.626 159.686 192.61 158.902 192.261 158.029C191.928 157.149 191.311 156.195 190.41 155.167C189.053 153.619 187.64 152.562 186.172 151.997C184.704 151.431 183.171 151.504 181.573 152.216C180.507 152.69 179.816 153.274 179.499 153.968C179.181 154.662 179.189 155.449 179.521 156.329C179.854 157.21 180.471 158.164 181.372 159.191ZM201.92 139.871L204.172 142.439L196.682 145.774L207.296 157.878L203.526 159.557L190.659 144.885L201.92 139.871ZM225.679 149.693L221.317 146.778L214.825 149.668L216.591 153.74L212.521 155.552L205.892 138.017L210.511 135.96L229.749 147.881L225.679 149.693ZM213.84 141.735C213.552 141.54 213.186 141.293 212.74 140.996C212.295 140.699 211.843 140.396 211.386 140.085C210.928 139.775 210.538 139.501 210.214 139.264C210.371 139.575 210.555 139.969 210.766 140.447C210.981 140.903 211.184 141.346 211.375 141.776C211.571 142.184 211.702 142.478 211.767 142.658L213.485 146.636L218.13 144.569L213.84 141.735ZM253.43 137.338L231.008 147.321L218.141 132.649L221.912 130.97L232.508 143.053L238.051 140.585L227.455 128.502L231.25 126.812L241.846 138.895L247.389 136.427L236.793 124.344L240.563 122.666L253.43 137.338ZM267.191 131.211L256.929 135.78L244.062 121.108L254.324 116.539L256.559 119.087L250.067 121.977L252.896 125.204L258.939 122.513L261.173 125.061L255.131 127.752L258.447 131.533L264.939 128.642L267.191 131.211ZM284.509 123.501L280.739 125.179L275.188 118.85L268.122 121.996L273.672 128.325L269.902 130.004L257.035 115.332L260.805 113.653L265.851 119.407L272.917 116.261L267.872 110.507L271.642 108.829L284.509 123.501ZM297.724 107.388C298.721 108.525 299.453 109.637 299.921 110.724C300.393 111.79 300.574 112.815 300.463 113.797C300.369 114.772 299.938 115.679 299.168 116.517C298.415 117.347 297.315 118.085 295.866 118.73C294.418 119.374 292.997 119.76 291.603 119.885C290.213 119.99 288.88 119.869 287.604 119.522C286.333 119.155 285.114 118.583 283.948 117.807C282.798 117.024 281.724 116.064 280.727 114.927C279.394 113.406 278.534 111.951 278.148 110.561C277.779 109.163 277.948 107.878 278.656 106.706C279.368 105.512 280.698 104.482 282.646 103.615C284.577 102.755 286.443 102.363 288.244 102.437C290.033 102.498 291.726 102.963 293.322 103.833C294.923 104.682 296.39 105.867 297.724 107.388ZM284.715 113.18C285.616 114.207 286.549 115.02 287.514 115.619C288.479 116.218 289.469 116.568 290.483 116.669C291.498 116.77 292.529 116.587 293.578 116.12C294.66 115.638 295.351 115.054 295.652 114.368C295.969 113.674 295.953 112.891 295.604 112.018C295.272 111.137 294.655 110.183 293.754 109.155C292.396 107.607 290.984 106.551 289.516 105.985C288.047 105.42 286.514 105.493 284.916 106.204C283.851 106.678 283.16 107.263 282.842 107.956C282.525 108.65 282.532 109.437 282.865 110.318C283.197 111.198 283.814 112.152 284.715 113.18Z" fill="white"/>
<g opacity="0.4" filter="url(#filter3_d_438_299)">
<path d="M213.522 80.5606L210.394 76.9929L211.062 76.6952L214.191 80.2628L213.522 80.5606ZM215.572 79.6482L212.34 77.5933L213.015 77.2927L215.69 79.0568L215.789 79.0127L214.737 76.5262L215.412 76.2257L216.587 79.196L215.572 79.6482ZM218.912 78.2602C218.693 78.3576 218.47 78.4144 218.243 78.4304C218.02 78.4446 217.805 78.4152 217.597 78.3423C217.394 78.2675 217.218 78.1451 217.069 77.9752C216.917 77.802 216.841 77.6372 216.842 77.4809C216.844 77.3195 216.906 77.1712 217.029 77.0363C217.156 76.8995 217.331 76.7815 217.554 76.6822L218.483 76.2686L218.34 76.1055C218.212 75.9594 218.055 75.8661 217.87 75.8255C217.685 75.785 217.482 75.8143 217.259 75.9136C217.04 76.011 216.91 76.1279 216.869 76.2644C216.828 76.4008 216.848 76.5452 216.93 76.6976L216.197 76.8043C216.127 76.6464 216.099 76.4891 216.111 76.3326C216.124 76.1709 216.191 76.0156 216.313 75.8667C216.435 75.7179 216.624 75.5865 216.88 75.4725C217.277 75.2961 217.662 75.2405 218.035 75.3059C218.408 75.3713 218.728 75.5569 218.996 75.8627L219.904 76.8973C219.993 76.9993 220.096 77.0245 220.211 76.973L220.471 76.8572L220.856 77.2955L220.379 77.5078C220.234 77.5722 220.09 77.594 219.945 77.5733C219.801 77.5525 219.683 77.4895 219.59 77.3842L219.577 77.3689L219.484 77.4103C219.496 77.4759 219.498 77.5574 219.492 77.6548C219.485 77.7522 219.44 77.8548 219.357 77.9628C219.271 78.0673 219.122 78.1665 218.912 78.2602ZM218.625 77.7857C218.881 77.6717 219.035 77.5203 219.088 77.3315C219.137 77.1394 219.07 76.938 218.885 76.7273L218.84 76.6763L217.949 77.0734C217.779 77.1487 217.67 77.24 217.62 77.3471C217.568 77.4508 217.592 77.5604 217.693 77.676C217.795 77.7915 217.929 77.8593 218.096 77.8795C218.263 77.8996 218.439 77.8684 218.625 77.7857ZM221.228 77.1297L219.025 74.617L219.65 74.3386L219.981 74.7157L220.08 74.6716C220.048 74.5439 220.068 74.4028 220.139 74.2483C220.211 74.0938 220.393 73.9513 220.686 73.8208C220.917 73.7179 221.159 73.6693 221.411 73.6752C221.667 73.6793 221.915 73.7365 222.155 73.8469C222.393 73.9538 222.607 74.116 222.797 74.3335L224.12 75.8421L223.482 76.1261L222.195 74.6582C222.005 74.4408 221.798 74.3105 221.577 74.2674C221.352 74.2209 221.125 74.2491 220.893 74.352C220.629 74.4697 220.479 74.6357 220.443 74.8501C220.411 75.0626 220.515 75.3048 220.753 75.5766L221.866 76.8457L221.228 77.1297ZM226.103 74.9594L222.974 71.3918L223.643 71.094L226.772 74.6616L226.103 74.9594ZM228.152 74.047L224.92 71.9921L225.595 71.6916L228.271 73.4557L228.37 73.4116L227.317 70.9251L227.992 70.6245L229.168 73.5949L228.152 74.047ZM231.492 72.6591C231.273 72.7565 231.051 72.8132 230.824 72.8293C230.601 72.8435 230.385 72.8141 230.178 72.7411C229.975 72.6663 229.798 72.544 229.649 72.3741C229.497 72.2008 229.422 72.036 229.423 71.8798C229.424 71.7183 229.487 71.5701 229.609 71.4351C229.736 71.2983 229.911 71.1803 230.134 71.081L231.063 70.6675L230.92 70.5044C230.792 70.3583 230.635 70.2649 230.451 70.2244C230.266 70.1838 230.062 70.2132 229.839 70.3124C229.62 70.4099 229.49 70.5268 229.449 70.6632C229.408 70.7996 229.429 70.944 229.511 71.0965L228.777 71.2032C228.708 71.0452 228.679 70.888 228.691 70.7315C228.704 70.5697 228.772 70.4144 228.894 70.2656C229.016 70.1167 229.205 69.9853 229.461 69.8714C229.857 69.6949 230.242 69.6394 230.615 69.7048C230.988 69.7702 231.309 69.9558 231.577 70.2616L232.484 71.2962C232.574 71.3981 232.676 71.4233 232.792 71.3719L233.052 71.2561L233.436 71.6944L232.959 71.9067C232.815 71.971 232.67 71.9928 232.526 71.9721C232.381 71.9514 232.263 71.8884 232.171 71.783L232.157 71.7677L232.064 71.8091C232.076 71.8748 232.079 71.9563 232.072 72.0537C232.066 72.151 232.021 72.2537 231.938 72.3616C231.851 72.4662 231.703 72.5653 231.492 72.6591ZM231.205 72.1845C231.461 72.0705 231.616 71.9192 231.668 71.7304C231.718 71.5382 231.65 71.3368 231.465 71.1262L231.421 71.0752L230.529 71.4722C230.36 71.5476 230.25 71.6388 230.201 71.7459C230.148 71.8497 230.172 71.9593 230.274 72.0748C230.375 72.1903 230.509 72.2582 230.676 72.2783C230.843 72.2985 231.019 72.2672 231.205 72.1845ZM233.809 71.5285L231.605 69.0159L232.231 68.7374L232.561 69.1146L232.66 69.0705C232.629 68.9428 232.649 68.8017 232.72 68.6472C232.791 68.4927 232.973 68.3502 233.266 68.2196C233.497 68.1167 233.739 68.0682 233.991 68.0741C234.247 68.0782 234.495 68.1354 234.736 68.2457C234.973 68.3527 235.187 68.5149 235.378 68.7323L236.701 70.2409L236.063 70.5249L234.776 69.0571C234.585 68.8396 234.379 68.7093 234.157 68.6662C233.933 68.6197 233.705 68.6479 233.474 68.7509C233.21 68.8685 233.059 69.0345 233.024 69.2489C232.992 69.4615 233.095 69.7037 233.334 69.9755L234.447 71.2445L233.809 71.5285ZM238.864 69.3769C238.559 69.5129 238.241 69.5833 237.913 69.588C237.585 69.5874 237.268 69.5206 236.962 69.3876C236.656 69.2546 236.387 69.0556 236.154 68.7906L236.087 68.7141C235.855 68.4491 235.723 68.1911 235.693 67.9402C235.659 67.6858 235.714 67.4536 235.857 67.2435C236.004 67.0316 236.23 66.8576 236.535 66.7216C236.841 66.5856 237.16 66.5169 237.491 66.5156C237.823 66.5143 238.142 66.5802 238.448 66.7132C238.751 66.8428 239.019 67.0401 239.252 67.3052L239.319 67.3816C239.551 67.6466 239.684 67.9063 239.718 68.1607C239.751 68.415 239.695 68.6481 239.547 68.8601C239.397 69.0686 239.17 69.2409 238.864 69.3769ZM238.453 68.908C238.734 68.783 238.897 68.6089 238.942 68.3856C238.988 68.157 238.897 67.912 238.667 67.6503L238.627 67.6045C238.398 67.3428 238.132 67.1776 237.831 67.1087C237.526 67.0364 237.232 67.0636 236.947 67.1905C236.67 67.3136 236.509 67.4895 236.462 67.718C236.417 67.9413 236.509 68.1838 236.738 68.4454L236.779 68.4913C237.008 68.7529 237.275 68.9199 237.579 68.9922C237.885 69.0592 238.176 69.0312 238.453 68.908ZM241.53 68.0906L238.299 66.0356L238.974 65.7351L241.649 67.4992L241.748 67.4551L240.696 64.9686L241.371 64.6681L242.546 67.6384L241.53 68.0906Z" fill="white"/>
</g>
<line y1="-0.488801" x2="68.4321" y2="-0.488801" transform="matrix(0.913545 -0.406737 0.659347 0.751838 132.364 119.62)" stroke="#F7E794" stroke-width="0.977601"/>
<line y1="-0.488801" x2="68.4321" y2="-0.488801" transform="matrix(0.913545 -0.406737 0.659347 0.751838 132.364 119.62)" stroke="#F7E794" stroke-width="0.977601"/>
<line y1="-0.488801" x2="68.4321" y2="-0.488801" transform="matrix(0.913545 -0.406737 0.659347 0.751838 131.075 118.15)" stroke="#F7E794" stroke-width="0.977601"/>
<line y1="-0.488801" x2="68.4321" y2="-0.488801" transform="matrix(0.913545 -0.406737 0.659347 0.751838 131.075 118.15)" stroke="#F7E794" stroke-width="0.977601"/>
<line y1="-0.488801" x2="68.4321" y2="-0.488801" transform="matrix(0.913545 -0.406737 0.659347 0.751838 131.719 118.885)" stroke="white" stroke-width="0.977601"/>
</g>
<rect x="0.313602" y="0.0688061" width="138.369" height="84.138" rx="6.18076" transform="matrix(0.913545 -0.406737 0.659347 0.751838 115.822 109.587)" stroke="url(#paint3_radial_438_299)" stroke-width="0.398758"/>
<rect x="0.313602" y="0.0688061" width="138.369" height="84.138" rx="6.18076" transform="matrix(0.913545 -0.406737 0.659347 0.751838 115.822 109.587)" stroke="url(#paint4_radial_438_299)" stroke-width="0.398758"/>
<rect x="0.313602" y="0.0688061" width="138.369" height="84.138" rx="6.18076" transform="matrix(0.913545 -0.406737 0.659347 0.751838 115.822 109.587)" stroke="url(#paint5_radial_438_299)" stroke-width="0.398758"/>
</g>
<g filter="url(#filter4_f_438_299)">
<ellipse cx="167" cy="94.5348" rx="101" ry="28.5" fill="white" fill-opacity="0.4"/>
</g>
<defs>
<filter id="filter0_f_438_299" x="36.3999" y="18.4347" width="353.2" height="232.2" filterUnits="userSpaceOnUse" color-interpolation-filters="sRGB">
<feFlood flood-opacity="0" result="BackgroundImageFix"/>
<feBlend mode="normal" in="SourceGraphic" in2="BackgroundImageFix" result="shape"/>
<feGaussianBlur stdDeviation="28.8" result="effect1_foregroundBlur_438_299"/>
</filter>
<filter id="filter1_d_438_299" x="71.4505" y="23.9733" width="262.51" height="200" filterUnits="userSpaceOnUse" color-interpolation-filters="sRGB">
<feFlood flood-opacity="0" result="BackgroundImageFix"/>
<feColorMatrix in="SourceAlpha" type="matrix" values="0 0 0 0 0 0 0 0 0 0 0 0 0 0 0 0 0 0 127 0" result="hardAlpha"/>
<feOffset dx="-4.38933" dy="10.9733"/>
<feGaussianBlur stdDeviation="20"/>
<feComposite in2="hardAlpha" operator="out"/>
<feColorMatrix type="matrix" values="0 0 0 0 0.737549 0 0 0 0 0.651872 0 0 0 0 0.223485 0 0 0 1 0"/>
<feBlend mode="normal" in2="BackgroundImageFix" result="effect1_dropShadow_438_299"/>
<feBlend mode="normal" in="SourceGraphic" in2="effect1_dropShadow_438_299" result="shape"/>
</filter>
<filter id="filter2_f_438_299" x="111.03" y="56.8964" width="250.653" height="171.627" filterUnits="userSpaceOnUse" color-interpolation-filters="sRGB">
<feFlood flood-opacity="0" result="BackgroundImageFix"/>
<feBlend mode="normal" in="SourceGraphic" in2="BackgroundImageFix" result="shape"/>
<feGaussianBlur stdDeviation="14.3553" result="effect1_foregroundBlur_438_299"/>
</filter>
<filter id="filter3_d_438_299" x="209.995" y="63.6131" width="34.0404" height="18.2152" filterUnits="userSpaceOnUse" color-interpolation-filters="sRGB">
<feFlood flood-opacity="0" result="BackgroundImageFix"/>
<feColorMatrix in="SourceAlpha" type="matrix" values="0 0 0 0 0 0 0 0 0 0 0 0 0 0 0 0 0 0 127 0" result="hardAlpha"/>
<feOffset dy="0.797517"/>
<feGaussianBlur stdDeviation="0.199379"/>
<feComposite in2="hardAlpha" operator="out"/>
<feColorMatrix type="matrix" values="0 0 0 0 0 0 0 0 0 0 0 0 0 0 0 0 0 0 0.25 0"/>
<feBlend mode="normal" in2="BackgroundImageFix" result="effect1_dropShadow_438_299"/>
<feBlend mode="normal" in="SourceGraphic" in2="effect1_dropShadow_438_299" result="shape"/>
</filter>
<filter id="filter4_f_438_299" x="0.400002" y="0.434786" width="333.2" height="188.2" filterUnits="userSpaceOnUse" color-interpolation-filters="sRGB">
<feFlood flood-opacity="0" result="BackgroundImageFix"/>
<feBlend mode="normal" in="SourceGraphic" in2="BackgroundImageFix" result="shape"/>
<feGaussianBlur stdDeviation="32.8" result="effect1_foregroundBlur_438_299"/>
</filter>
<linearGradient id="paint0_linear_438_299" x1="213" y1="76.0348" x2="213" y2="193.035" gradientUnits="userSpaceOnUse">
<stop stop-color="#E0B330"/>
<stop offset="0.511012" stop-color="#FBEE88"/>
<stop offset="1" stop-color="#E0B330"/>
</linearGradient>
<linearGradient id="paint1_linear_438_299" x1="69.384" y1="0" x2="69.384" y2="84.5368" gradientUnits="userSpaceOnUse">
<stop stop-color="#FBEE88"/>
<stop offset="1" stop-color="#E0B330"/>
</linearGradient>
<linearGradient id="paint2_linear_438_299" x1="214.115" y1="123.612" x2="233.849" y2="167.936" gradientUnits="userSpaceOnUse">
<stop stop-color="#E0B330"/>
<stop offset="0.511012" stop-color="#FBEE88"/>
<stop offset="1" stop-color="#E0B330"/>
</linearGradient>
<radialGradient id="paint3_radial_438_299" cx="0" cy="0" r="1" gradientUnits="userSpaceOnUse" gradientTransform="translate(168.32 31.947) rotate(174.425) scale(227.646 57.6884)">
<stop stop-color="white"/>
<stop offset="1" stop-color="white" stop-opacity="0"/>
</radialGradient>
<radialGradient id="paint4_radial_438_299" cx="0" cy="0" r="1" gradientUnits="userSpaceOnUse" gradientTransform="translate(-12.4206 -49.1493) rotate(30.6396) scale(133.409 80.5988)">
<stop stop-color="white"/>
<stop offset="1" stop-color="white" stop-opacity="0"/>
</radialGradient>
<radialGradient id="paint5_radial_438_299" cx="0" cy="0" r="1" gradientUnits="userSpaceOnUse" gradientTransform="translate(-55.6785 114.19) rotate(-5.33944) scale(170.775 43.0899)">
<stop stop-color="white"/>
<stop offset="1" stop-color="white" stop-opacity="0"/>
</radialGradient>
<clipPath id="clip0_438_299">
<rect width="138.768" height="84.5368" rx="6.38013" transform="matrix(0.913545 -0.406737 0.659347 0.751838 115.84 109.442)" fill="white"/>
</clipPath>
</defs>
</svg>
