<svg width="133" height="41" viewBox="0 0 133 41" fill="none" xmlns="http://www.w3.org/2000/svg">
<path d="M3.816 3.144V16.2H0.384V0H11.16V3.144H3.816Z" fill="white"/>
<path d="M13.4051 16.2H9.82913L16.6931 0H19.5011L26.3651 16.2H22.7891L21.6131 13.344H14.5811L13.4051 16.2ZM20.3411 10.248L18.1091 4.872L15.8771 10.248H20.3411Z" fill="white"/>
<path d="M31.191 10.752V16.2H27.759V0H35.079C36.727 0 38.095 0.512 39.183 1.536C40.287 2.56 40.839 3.84 40.839 5.376C40.839 6.896 40.287 8.176 39.183 9.216C38.095 10.24 36.727 10.752 35.079 10.752H31.191ZM35.079 3.168H31.191V7.608H35.079C35.703 7.608 36.223 7.4 36.639 6.984C37.071 6.552 37.287 6.016 37.287 5.376C37.287 4.736 37.071 4.208 36.639 3.792C36.223 3.376 35.703 3.168 35.079 3.168Z" fill="white"/>
<path d="M43.077 16.2H39.501L46.365 0H49.173L56.037 16.2H52.461L51.285 13.344H44.253L43.077 16.2ZM50.013 10.248L47.781 4.872L45.549 10.248H50.013Z" fill="white"/>
<path d="M60.8629 16.2H57.4309V0H60.8629V6.432H68.2789V0H71.6869V16.2H68.2789V9.6H60.8629V16.2Z" fill="white"/>
<path d="M78.5589 3.168H73.3989V0H87.1269V3.168H81.9669V16.2H78.5589V3.168Z" fill="white"/>
<path d="M92.0286 16.2H88.8606V0H92.2926V10.44L100.093 0H103.261V16.2H99.8526V5.76L92.0286 16.2Z" fill="white"/>
<path d="M112.433 10.608L109.121 16.2H105.305L108.881 10.128C107.873 9.712 107.081 9.08 106.505 8.232C105.929 7.384 105.641 6.416 105.641 5.328C105.641 3.808 106.185 2.544 107.273 1.536C108.345 0.512 109.697 0 111.329 0H118.865V16.2H115.433V10.608H112.433ZM109.217 5.328C109.217 5.936 109.417 6.448 109.817 6.864C110.217 7.264 110.721 7.464 111.329 7.464H115.433V3.144H111.329C110.721 3.144 110.217 3.352 109.817 3.768C109.417 4.184 109.217 4.704 109.217 5.328Z" fill="white"/>
<path d="M8.496 23.712C10.176 23.712 11.696 24.128 13.056 24.96C14.416 25.776 15.44 26.888 16.128 28.296L12.816 29.52C12.384 28.736 11.792 28.12 11.04 27.672C10.288 27.224 9.44 27 8.496 27C7.072 27 5.896 27.488 4.968 28.464C4.04 29.44 3.576 30.648 3.576 32.088C3.576 33.544 4.04 34.76 4.968 35.736C5.896 36.712 7.072 37.2 8.496 37.2C9.44 37.2 10.288 36.976 11.04 36.528C11.792 36.08 12.384 35.464 12.816 34.68L16.128 35.904C15.44 37.312 14.416 38.432 13.056 39.264C11.696 40.08 10.176 40.488 8.496 40.488C6.064 40.488 4.04 39.688 2.424 38.088C0.808 36.472 0 34.48 0 32.112C0 29.744 0.808 27.752 2.424 26.136C4.072 24.52 6.096 23.712 8.496 23.712Z" fill="white"/>
<path d="M21.441 27.144V40.2H18.009V24H32.265V40.2H28.857V27.144H21.441Z" fill="white"/>
<path d="M37.8411 40.2H34.6731V24H38.1051V34.44L45.9051 24H49.0731V40.2H45.6651V29.76L37.8411 40.2Z" fill="white"/>
<path d="M59.5897 23.712C61.2697 23.712 62.7898 24.128 64.1497 24.96C65.5098 25.776 66.5337 26.888 67.2217 28.296L63.9098 29.52C63.4778 28.736 62.8858 28.12 62.1338 27.672C61.3818 27.224 60.5337 27 59.5897 27C58.1657 27 56.9897 27.488 56.0617 28.464C55.1337 29.44 54.6698 30.648 54.6698 32.088C54.6698 33.544 55.1337 34.76 56.0617 35.736C56.9897 36.712 58.1657 37.2 59.5897 37.2C60.5337 37.2 61.3818 36.976 62.1338 36.528C62.8858 36.08 63.4778 35.464 63.9098 34.68L67.2217 35.904C66.5337 37.312 65.5098 38.432 64.1497 39.264C62.7898 40.08 61.2697 40.488 59.5897 40.488C57.1577 40.488 55.1337 39.688 53.5177 38.088C51.9017 36.472 51.0938 34.48 51.0938 32.112C51.0938 29.744 51.9017 27.752 53.5177 26.136C55.1657 24.52 57.1897 23.712 59.5897 23.712Z" fill="white"/>
<path d="M71.1551 40.2H67.5791L74.4431 24H77.2511L84.1151 40.2H80.5391L79.3631 37.344H72.3311L71.1551 40.2ZM78.0911 34.248L75.8591 28.872L73.6271 34.248H78.0911Z" fill="white"/>
<path d="M88.941 40.2H85.509V24H88.941V30.432H96.357V24H99.765V40.2H96.357V33.6H88.941V40.2Z" fill="white"/>
<path d="M105.341 40.2H102.173V24H105.605V34.44L113.405 24H116.573V40.2H113.165V29.76L105.341 40.2Z" fill="white"/>
<path d="M125.746 34.608L122.434 40.2H118.618L122.194 34.128C121.186 33.712 120.394 33.08 119.818 32.232C119.242 31.384 118.954 30.416 118.954 29.328C118.954 27.808 119.498 26.544 120.586 25.536C121.658 24.512 123.01 24 124.642 24H132.178V40.2H128.746V34.608H125.746ZM122.53 29.328C122.53 29.936 122.73 30.448 123.13 30.864C123.53 31.264 124.034 31.464 124.642 31.464H128.746V27.144H124.642C124.034 27.144 123.53 27.352 123.13 27.768C122.73 28.184 122.53 28.704 122.53 29.328Z" fill="white"/>
</svg>
