<svg width="183" height="120" viewBox="0 0 183 120" fill="none" xmlns="http://www.w3.org/2000/svg">
<g clip-path="url(#clip0_424_325)">
<rect width="138.76" height="84.5322" rx="6.37979" transform="matrix(0.913545 -0.406737 0.659347 0.751838 0 56.439)" fill="#5B82FF"/>
<path d="M24.2329 66.703C23.6685 66.9543 23.0962 67.0946 22.516 67.124C21.9359 67.1534 21.3867 67.0709 20.8685 66.8765C20.3523 66.673 19.9086 66.3596 19.5373 65.9363L19.3981 65.7776L20.7698 65.1668L20.8781 65.2903C21.1669 65.6196 21.5382 65.8221 21.9921 65.898C22.4409 65.968 22.8939 65.9012 23.3512 65.6976C23.8156 65.4908 24.0928 65.2407 24.183 64.9471C24.2804 64.6503 24.2079 64.3637 23.9655 64.0874L23.8882 63.9992C23.7232 63.811 23.532 63.6836 23.3145 63.6169C23.0971 63.5502 22.8687 63.5333 22.6294 63.5663C22.385 63.5934 22.1413 63.661 21.8984 63.7691L20.3981 64.4371L19.3153 63.2024L20.809 61.0658L20.6853 60.9246L16.8917 62.6137L16.0099 61.6082L21.3253 59.2417L22.6401 60.741L21.2452 62.7355L21.369 62.8766L21.7655 62.7001C22.1013 62.5506 22.4753 62.4617 22.8876 62.4335C23.3071 62.4021 23.7236 62.4578 24.137 62.6008C24.5453 62.7378 24.9118 62.9916 25.2367 63.362L25.3295 63.4678C25.6801 63.8676 25.8691 64.27 25.8963 64.6748C25.9183 65.0737 25.7872 65.451 25.5029 65.8064C25.2207 66.1529 24.7973 66.4517 24.2329 66.703ZM33.2154 62.5321L32.1171 61.2797L28.4307 62.921L27.2859 61.6157L26.7082 56.8451L29.1729 55.7477L32.6071 59.6635L33.8502 59.1101L34.7319 60.1155L33.4888 60.669L34.5871 61.9213L33.2154 62.5321ZM28.8563 61.3335L31.2354 60.2743L28.4355 57.0816L28.2426 57.1675L28.7326 61.1924L28.8563 61.3335ZM38.9899 60.1328C38.4041 60.3936 37.8221 60.5342 37.2439 60.5545C36.6728 60.5717 36.1364 60.4753 35.6345 60.2655C35.1326 60.0557 34.7011 59.745 34.3402 59.3334L34.2628 59.2452L35.656 58.6249L35.7256 58.7043C35.9834 58.9983 36.323 59.1986 36.7444 59.3053C37.1678 59.403 37.6152 59.3468 38.0867 59.1369C38.5583 58.9269 38.8288 58.6634 38.8984 58.3463C38.97 58.0201 38.8588 57.6895 38.5649 57.3543L38.4875 57.2661C38.1988 56.9369 37.8407 56.7325 37.4134 56.653C36.9932 56.5703 36.5937 56.6132 36.2151 56.7818C36.0079 56.874 35.8571 56.9739 35.7626 57.0814C35.6681 57.1888 35.6089 57.2969 35.5851 57.4057C35.5612 57.5144 35.5516 57.6168 35.5564 57.7128L33.8953 58.4523L30.8634 54.9951L35.9858 52.7144L36.883 53.7375L33.1323 55.4074L34.4549 56.9155L34.6478 56.8296C34.6522 56.7214 34.6842 56.605 34.7438 56.4803C34.8033 56.3557 34.9089 56.2269 35.0606 56.094C35.2122 55.9611 35.4202 55.8358 35.6846 55.7181C36.1275 55.5209 36.5982 55.4176 37.0966 55.4082C37.595 55.3989 38.0829 55.4964 38.5602 55.7009C39.0395 55.8963 39.4699 56.2115 39.8515 56.6466L39.9443 56.7524C40.3259 57.1875 40.5416 57.6147 40.5914 58.034C40.6484 58.4501 40.5434 58.8402 40.2766 59.2042C40.0046 59.5624 39.5757 59.8719 38.9899 60.1328ZM45.5966 57.0196L44.4983 55.7672L40.8119 57.4085L39.6672 56.1032L39.0894 51.3326L41.5542 50.2352L44.9883 54.1511L46.2314 53.5976L47.1131 54.603L45.87 55.1565L46.9683 56.4089L45.5966 57.0196ZM41.2376 55.821L43.6166 54.7618L40.8167 51.5691L40.6238 51.655L41.1138 55.6799L41.2376 55.821ZM53.8885 53.4995C53.0026 53.8939 52.1164 54.0105 51.23 53.8492C50.3384 53.6821 49.5342 53.1899 48.8175 52.3726L47.4562 50.8204C46.7601 50.0266 46.4995 49.3047 46.6743 48.6546C46.8441 47.9985 47.3719 47.4733 48.2578 47.0789C49.1508 46.6813 50.0447 46.5735 50.9395 46.7556C51.8362 46.9286 52.6327 47.412 53.3288 48.2057L54.6901 49.758C55.4068 50.5753 55.6751 51.306 55.4951 51.9503C55.3171 52.5855 54.7815 53.1019 53.8885 53.4995ZM53.0068 52.4941C53.5426 52.2555 53.8298 51.96 53.8684 51.6076C53.9142 51.252 53.7412 50.8508 53.3493 50.404L51.9107 48.7636C51.5136 48.3108 51.0717 48.0334 50.5848 47.9313C50.0999 47.8202 49.6182 47.8712 49.1395 48.0843C48.6465 48.3038 48.3665 48.5961 48.2992 48.9612C48.2392 49.3231 48.3999 49.7217 48.7815 50.1568L50.2201 51.7972C50.6275 52.2617 51.0629 52.5543 51.5263 52.6749C51.9917 52.7866 52.4852 52.7263 53.0068 52.4941ZM60.4088 50.5965C59.5229 50.9909 58.6367 51.1075 57.7502 50.9462C56.8586 50.7791 56.0545 50.2869 55.3377 49.4696L53.9765 47.9174C53.2803 47.1236 53.0197 46.4017 53.1946 45.7515C53.3643 45.0955 53.8921 44.5703 54.778 44.1759C55.6711 43.7783 56.565 43.6705 57.4597 43.8526C58.3565 44.0256 59.1529 44.509 59.8491 45.3027L61.2103 46.855C61.9271 47.6722 62.1954 48.403 62.0154 49.0473C61.8373 49.6825 61.3018 50.1989 60.4088 50.5965ZM59.527 49.5911C60.0628 49.3525 60.3501 49.057 60.3887 48.7046C60.4345 48.349 60.2614 47.9478 59.8696 47.501L58.4309 45.8605C58.0339 45.4078 57.592 45.1304 57.1051 45.0283C56.6202 44.9172 56.1384 44.9682 55.6598 45.1813C55.1668 45.4008 54.8867 45.6931 54.8195 46.0582C54.7594 46.4201 54.9202 46.8187 55.3018 47.2537L56.7404 48.8942C57.1477 49.3587 57.5831 49.6513 58.0466 49.7719C58.512 49.8835 59.0055 49.8233 59.527 49.5911ZM66.929 47.6935C66.0431 48.0879 65.157 48.2045 64.2705 48.0432C63.3789 47.8761 62.5747 47.3839 61.858 46.5666L60.4967 45.0144C59.8006 44.2206 59.54 43.4987 59.7149 42.8485C59.8846 42.1925 60.4124 41.6673 61.2983 41.2729C62.1913 40.8753 63.0852 40.7675 63.98 40.9496C64.8768 41.1226 65.6732 41.606 66.3693 42.3997L67.7306 43.952C68.4473 44.7692 68.7157 45.5 68.5356 46.1443C68.3576 46.7795 67.8221 47.2959 66.929 47.6935ZM66.0473 46.688C66.5831 46.4495 66.8703 46.154 66.909 45.8016C66.9548 45.446 66.7817 45.0448 66.3898 44.598L64.9512 42.9575C64.5542 42.5048 64.1122 42.2274 63.6253 42.1253C63.1405 42.0142 62.6587 42.0652 62.18 42.2783C61.6871 42.4978 61.407 42.7901 61.3398 43.1552C61.2797 43.5171 61.4404 43.9156 61.822 44.3507L63.2606 45.9912C63.668 46.4557 64.1034 46.7482 64.5668 46.8689C65.0323 46.9805 65.5258 46.9202 66.0473 46.688ZM71.5011 43.7939L70.7121 42.8943L71.6981 42.4553L71.2804 41.9791L70.2945 42.418L69.5056 41.5184L70.4915 41.0795L68.1402 38.3984L71.2694 37.0051C71.7337 36.7984 72.2028 36.6876 72.6767 36.6729C73.1576 36.655 73.6141 36.7338 74.0462 36.9093C74.4731 37.0789 74.8413 37.3401 75.1507 37.6929L75.259 37.8164C75.5683 38.1692 75.7329 38.521 75.7526 38.872C75.7794 39.2197 75.6761 39.5437 75.4426 39.8439C75.204 40.1381 74.8597 40.3855 74.4096 40.5859L72.695 41.3493L73.1126 41.8255L75.4917 40.7663L76.2806 41.6659L73.9015 42.7251L74.9689 43.9422L73.5543 44.572L72.487 43.3549L71.5011 43.7939ZM71.906 40.4497L73.4813 39.7483C73.8028 39.6052 74.0043 39.4214 74.0857 39.1971C74.162 38.967 74.0971 38.7343 73.8908 38.4991L73.8135 38.4109C73.602 38.1698 73.337 38.0262 73.0184 37.9801C72.7069 37.9307 72.3868 37.9792 72.0582 38.1255L70.4829 38.8269L71.906 40.4497Z" fill="white"/>
<path d="M51.211 122.795L38.3446 108.124L52.4512 101.843L65.3176 116.514L61.5475 118.193L50.9516 106.111L44.3852 109.034L54.981 121.116L51.211 122.795ZM78.5436 100.397C79.5408 101.534 80.273 102.646 80.7404 103.733C81.2124 104.799 81.3932 105.824 81.2827 106.806C81.1889 107.781 80.7573 108.688 79.9877 109.525C79.2348 110.356 78.1342 111.094 76.6861 111.738C75.238 112.383 73.8168 112.768 72.4225 112.894C71.0329 112.998 69.7002 112.877 68.4245 112.531C67.1534 112.164 65.9346 111.592 64.7681 110.816C63.6183 110.033 62.5449 109.073 61.5477 107.936C60.2143 106.415 59.3546 104.96 58.9687 103.57C58.5994 102.172 58.7687 100.887 59.4765 99.715C60.1889 98.5217 61.5188 97.4915 63.4663 96.6244C65.3971 95.7647 67.263 95.3721 69.064 95.4464C70.853 95.507 72.5456 95.9724 74.142 96.8426C75.7429 97.6917 77.2102 98.8765 78.5436 100.397ZM65.5356 106.189C66.4366 107.216 67.3696 108.029 68.3346 108.628C69.2996 109.227 70.2891 109.577 71.3033 109.678C72.3175 109.779 73.3489 109.596 74.3976 109.129C75.4795 108.647 76.1708 108.063 76.4716 107.377C76.789 106.683 76.7732 105.9 76.424 105.026C76.0916 104.146 75.4748 103.192 74.5738 102.165C73.2163 100.617 71.8036 99.5599 70.3356 98.9945C68.8677 98.429 67.3347 98.502 65.7368 99.2134C64.6715 99.6877 63.9802 100.272 63.6628 100.965C63.3454 101.659 63.3529 102.446 63.6854 103.327C64.0178 104.207 64.6346 105.161 65.5356 106.189ZM86.0828 86.8692L88.3353 89.4377L80.845 92.7725L91.4589 104.875L87.6888 106.554L74.8224 91.8826L86.0828 86.8692ZM109.841 96.6911L105.479 93.776L98.9875 96.6662L100.753 100.737L96.683 102.549L90.0543 85.0152L94.6733 82.9587L113.911 94.8792L109.841 96.6911ZM98.002 88.7337C97.7146 88.5379 97.3481 88.2915 96.9026 87.9946C96.4571 87.6978 96.0056 87.394 95.548 87.0835C95.0905 86.7729 94.7 86.4991 94.3765 86.2622C94.5336 86.5732 94.7174 86.9676 94.928 87.4452C95.1432 87.9018 95.3464 88.3446 95.5376 88.7738C95.7335 89.1818 95.8642 89.476 95.9297 89.6563L97.6477 93.6342L102.292 91.5666L98.002 88.7337ZM137.59 84.3362L115.17 94.3186L102.303 79.6473L106.073 77.9688L116.669 90.051L122.212 87.5832L111.616 75.501L115.411 73.8113L126.007 85.8935L131.55 83.4257L120.954 71.3435L124.724 69.665L137.59 84.3362ZM151.351 78.2098L141.089 82.7786L128.223 68.1073L138.484 63.5385L140.719 66.0865L134.227 68.9767L137.056 72.2027L143.098 69.5126L145.333 72.0605L139.291 74.7507L142.607 78.5315L149.098 75.6413L151.351 78.2098ZM168.667 70.4999L164.897 72.1784L159.347 65.8497L152.281 68.9956L157.831 75.3243L154.061 77.0029L141.195 62.3316L144.965 60.6531L150.011 66.4065L157.076 63.2606L152.031 57.5072L155.801 55.8286L168.667 70.4999ZM181.882 54.388C182.879 55.525 183.611 56.6371 184.078 57.7242C184.55 58.7902 184.731 59.8145 184.621 60.797C184.527 61.7721 184.095 62.6785 183.326 63.5164C182.573 64.3469 181.472 65.0845 180.024 65.7292C178.576 66.3739 177.155 66.7591 175.761 66.8846C174.371 66.989 173.038 66.8681 171.763 66.5218C170.491 66.1545 169.273 65.5828 168.106 64.8069C166.956 64.0236 165.883 63.0635 164.886 61.9265C163.552 60.406 162.693 58.9507 162.307 57.5606C161.937 56.1631 162.107 54.8782 162.815 53.706C163.527 52.5126 164.857 51.4824 166.804 50.6153C168.735 49.7557 170.601 49.363 172.402 49.4373C174.191 49.498 175.884 49.9634 177.48 50.8336C179.081 51.6827 180.548 52.8675 181.882 54.388ZM168.874 60.1796C169.775 61.207 170.708 62.0201 171.673 62.6191C172.638 63.218 173.627 63.5679 174.641 63.6687C175.656 63.7695 176.687 63.5865 177.736 63.1196C178.818 62.6379 179.509 62.0539 179.81 61.3676C180.127 60.6739 180.111 59.8905 179.762 59.0174C179.43 58.1369 178.813 57.1829 177.912 56.1555C176.554 54.6076 175.142 53.5509 173.674 52.9854C172.206 52.4199 170.673 52.4929 169.075 53.2044C168.01 53.6787 167.318 54.2627 167.001 54.9563C166.683 55.65 166.691 56.4372 167.023 57.3177C167.356 58.1982 167.973 59.1522 168.874 60.1796Z" fill="white"/>
<g opacity="0.4" filter="url(#filter0_d_424_325)">
<path d="M97.679 27.5586L94.5504 23.9912L95.2192 23.6934L98.3478 27.2609L97.679 27.5586ZM99.7281 26.6463L96.4968 24.5915L97.1718 24.2909L99.8467 26.0549L99.9458 26.0108L98.8933 23.5245L99.5683 23.224L100.744 26.1941L99.7281 26.6463ZM103.068 25.2584C102.849 25.3558 102.627 25.4125 102.4 25.4286C102.177 25.4428 101.961 25.4134 101.754 25.3404C101.551 25.2656 101.374 25.1433 101.225 24.9734C101.073 24.8001 100.998 24.6354 100.999 24.4792C101 24.3177 101.063 24.1695 101.186 24.0345C101.312 23.8977 101.487 23.7797 101.71 23.6804L102.639 23.2669L102.496 23.1038C102.368 22.9577 102.212 22.8644 102.027 22.8238C101.842 22.7833 101.638 22.8126 101.415 22.9119C101.196 23.0093 101.066 23.1262 101.025 23.2626C100.984 23.399 101.005 23.5435 101.087 23.6959L100.354 23.8026C100.284 23.6446 100.255 23.4874 100.267 23.3309C100.28 23.1691 100.348 23.0139 100.47 22.865C100.592 22.7162 100.781 22.5848 101.037 22.4709C101.433 22.2944 101.818 22.2389 102.191 22.3043C102.564 22.3696 102.885 22.5552 103.153 22.861L104.06 23.8956C104.149 23.9975 104.252 24.0227 104.368 23.9713L104.628 23.8555L105.012 24.2937L104.535 24.506C104.391 24.5704 104.246 24.5922 104.102 24.5715C103.957 24.5507 103.839 24.4877 103.747 24.3824L103.733 24.3671L103.64 24.4085C103.652 24.4741 103.655 24.5556 103.648 24.653C103.642 24.7504 103.597 24.853 103.513 24.961C103.427 25.0655 103.279 25.1647 103.068 25.2584ZM102.781 24.7838C103.037 24.6699 103.191 24.5185 103.244 24.3298C103.294 24.1376 103.226 23.9362 103.041 23.7256L102.997 23.6746L102.105 24.0716C101.936 24.147 101.826 24.2382 101.777 24.3453C101.724 24.449 101.749 24.5586 101.85 24.6742C101.951 24.7897 102.085 24.8575 102.252 24.8777C102.419 24.8978 102.595 24.8666 102.781 24.7838ZM105.385 24.1279L103.181 21.6154L103.807 21.3369L104.137 21.7141L104.236 21.67C104.205 21.5423 104.225 21.4012 104.296 21.2467C104.367 21.0922 104.549 20.9497 104.842 20.8192C105.073 20.7163 105.315 20.6678 105.567 20.6737C105.823 20.6777 106.071 20.7349 106.311 20.8453C106.549 20.9522 106.763 21.1144 106.953 21.3318L108.276 22.8404L107.639 23.1243L106.351 21.6566C106.161 21.4391 105.955 21.3089 105.733 21.2658C105.509 21.2193 105.281 21.2475 105.05 21.3504C104.785 21.468 104.635 21.634 104.599 21.8484C104.568 22.061 104.671 22.3031 104.909 22.5749L106.022 23.8439L105.385 24.1279ZM110.259 21.9578L107.13 18.3903L107.799 18.0926L110.928 21.66L110.259 21.9578ZM112.308 21.0454L109.076 18.9906L109.751 18.6901L112.426 20.4541L112.525 20.41L111.473 17.9236L112.148 17.6231L113.323 20.5933L112.308 21.0454ZM115.648 19.6575C115.429 19.755 115.206 19.8117 114.979 19.8277C114.756 19.8419 114.541 19.8126 114.334 19.7396C114.13 19.6648 113.954 19.5425 113.805 19.3726C113.653 19.1993 113.578 19.0345 113.578 18.8783C113.58 18.7168 113.643 18.5686 113.765 18.4337C113.892 18.2969 114.067 18.1789 114.29 18.0796L115.219 17.666L115.076 17.503C114.948 17.3569 114.791 17.2635 114.606 17.223C114.422 17.1824 114.218 17.2118 113.995 17.311C113.776 17.4085 113.646 17.5254 113.605 17.6618C113.564 17.7982 113.584 17.9426 113.666 18.0951L112.933 18.2017C112.864 18.0438 112.835 17.8866 112.847 17.73C112.86 17.5683 112.928 17.413 113.05 17.2642C113.172 17.1154 113.361 16.984 113.617 16.87C114.013 16.6936 114.398 16.638 114.771 16.7034C115.144 16.7688 115.464 16.9544 115.733 17.2602L116.64 18.2947C116.729 18.3966 116.832 18.4219 116.947 18.3704L117.207 18.2546L117.592 18.6929L117.115 18.9052C116.97 18.9695 116.826 18.9913 116.681 18.9706C116.537 18.9499 116.419 18.8869 116.326 18.7816L116.313 18.7663L116.22 18.8076C116.232 18.8733 116.234 18.9548 116.228 19.0522C116.221 19.1495 116.176 19.2522 116.093 19.3601C116.007 19.4647 115.858 19.5638 115.648 19.6575ZM115.361 19.183C115.617 19.069 115.771 18.9177 115.824 18.7289C115.873 18.5368 115.806 18.3354 115.621 18.1247L115.576 18.0737L114.685 18.4708C114.515 18.5461 114.406 18.6374 114.356 18.7445C114.304 18.8482 114.328 18.9578 114.43 19.0733C114.531 19.1888 114.665 19.2567 114.832 19.2768C114.999 19.297 115.175 19.2657 115.361 19.183ZM117.964 18.5271L115.761 16.0146L116.386 15.7361L116.717 16.1132L116.816 16.0691C116.784 15.9415 116.804 15.8004 116.875 15.6459C116.947 15.4914 117.129 15.3489 117.422 15.2184C117.653 15.1154 117.895 15.0669 118.147 15.0728C118.403 15.0769 118.651 15.1341 118.891 15.2444C119.128 15.3514 119.342 15.5136 119.533 15.731L120.856 17.2395L120.218 17.5235L118.931 16.0557C118.74 15.8383 118.534 15.708 118.313 15.6649C118.088 15.6184 117.86 15.6466 117.629 15.7495C117.365 15.8672 117.215 16.0332 117.179 16.2476C117.147 16.4601 117.251 16.7023 117.489 16.9741L118.602 18.2431L117.964 18.5271ZM123.019 16.3756C122.714 16.5116 122.397 16.5819 122.068 16.5866C121.74 16.5861 121.423 16.5193 121.117 16.3863C120.811 16.2533 120.542 16.0543 120.31 15.7892L120.242 15.7128C120.01 15.4478 119.879 15.1898 119.848 14.9389C119.814 14.6846 119.869 14.4524 120.012 14.2423C120.159 14.0304 120.385 13.8564 120.691 13.7204C120.996 13.5844 121.315 13.5157 121.647 13.5144C121.979 13.5131 122.298 13.579 122.604 13.712C122.907 13.8416 123.174 14.0389 123.407 14.3039L123.474 14.3804C123.706 14.6454 123.839 14.9051 123.873 15.1594C123.907 15.4137 123.85 15.6468 123.703 15.8587C123.553 16.0673 123.325 16.2396 123.019 16.3756ZM122.608 15.9067C122.889 15.7817 123.052 15.6076 123.097 15.3843C123.144 15.1558 123.052 14.9107 122.823 14.6491L122.782 14.6032C122.553 14.3416 122.288 14.1763 121.986 14.1074C121.682 14.0351 121.387 14.0624 121.102 14.1892C120.825 14.3124 120.664 14.4882 120.617 14.7168C120.572 14.94 120.664 15.1825 120.894 15.4441L120.934 15.49C121.163 15.7516 121.43 15.9185 121.735 15.9908C122.04 16.0579 122.332 16.0299 122.608 15.9067ZM125.686 15.0893L122.454 13.0345L123.129 12.7339L125.804 14.498L125.903 14.4538L124.851 11.9675L125.526 11.667L126.701 14.6371L125.686 15.0893Z" fill="white"/>
</g>
<line y1="-0.488774" x2="68.4284" y2="-0.488774" transform="matrix(0.913545 -0.406737 0.659347 0.751838 16.523 66.6166)" stroke="#5B82FF" stroke-width="0.977548"/>
<line y1="-0.488774" x2="68.4284" y2="-0.488774" transform="matrix(0.913545 -0.406737 0.659347 0.751838 16.523 66.6166)" stroke="#5B82FF" stroke-width="0.977548"/>
<line y1="-0.488774" x2="68.4284" y2="-0.488774" transform="matrix(0.913545 -0.406737 0.659347 0.751838 15.2339 65.1467)" stroke="#5B82FF" stroke-width="0.977548"/>
<line y1="-0.488774" x2="68.4284" y2="-0.488774" transform="matrix(0.913545 -0.406737 0.659347 0.751838 15.2339 65.1467)" stroke="#5B82FF" stroke-width="0.977548"/>
<line y1="-0.488774" x2="68.4284" y2="-0.488774" transform="matrix(0.913545 -0.406737 0.659347 0.751838 15.8784 65.8817)" stroke="white" stroke-width="0.977548"/>
</g>
<rect x="0.313585" y="0.0688023" width="138.362" height="84.1334" rx="6.18042" transform="matrix(0.913545 -0.406737 0.659347 0.751838 -0.0182538 56.5836)" stroke="url(#paint0_radial_424_325)" stroke-width="0.398737"/>
<rect x="0.313585" y="0.0688023" width="138.362" height="84.1334" rx="6.18042" transform="matrix(0.913545 -0.406737 0.659347 0.751838 -0.0182538 56.5836)" stroke="url(#paint1_radial_424_325)" stroke-width="0.398737"/>
<rect x="0.313585" y="0.0688023" width="138.362" height="84.1334" rx="6.18042" transform="matrix(0.913545 -0.406737 0.659347 0.751838 -0.0182538 56.5836)" stroke="url(#paint2_radial_424_325)" stroke-width="0.398737"/>
<defs>
<filter id="filter0_d_424_325" x="94.1517" y="10.612" width="34.0387" height="18.2142" filterUnits="userSpaceOnUse" color-interpolation-filters="sRGB">
<feFlood flood-opacity="0" result="BackgroundImageFix"/>
<feColorMatrix in="SourceAlpha" type="matrix" values="0 0 0 0 0 0 0 0 0 0 0 0 0 0 0 0 0 0 127 0" result="hardAlpha"/>
<feOffset dy="0.797473"/>
<feGaussianBlur stdDeviation="0.199368"/>
<feComposite in2="hardAlpha" operator="out"/>
<feColorMatrix type="matrix" values="0 0 0 0 0 0 0 0 0 0 0 0 0 0 0 0 0 0 0.25 0"/>
<feBlend mode="normal" in2="BackgroundImageFix" result="effect1_dropShadow_424_325"/>
<feBlend mode="normal" in="SourceGraphic" in2="effect1_dropShadow_424_325" result="shape"/>
</filter>
<radialGradient id="paint0_radial_424_325" cx="0" cy="0" r="1" gradientUnits="userSpaceOnUse" gradientTransform="translate(168.311 31.9453) rotate(174.425) scale(227.633 57.6853)">
<stop stop-color="white"/>
<stop offset="1" stop-color="white" stop-opacity="0"/>
</radialGradient>
<radialGradient id="paint1_radial_424_325" cx="0" cy="0" r="1" gradientUnits="userSpaceOnUse" gradientTransform="translate(-12.4199 -49.1466) rotate(30.6396) scale(133.401 80.5945)">
<stop stop-color="white"/>
<stop offset="1" stop-color="white" stop-opacity="0"/>
</radialGradient>
<radialGradient id="paint2_radial_424_325" cx="0" cy="0" r="1" gradientUnits="userSpaceOnUse" gradientTransform="translate(-55.6755 114.184) rotate(-5.33944) scale(170.765 43.0876)">
<stop stop-color="white"/>
<stop offset="1" stop-color="white" stop-opacity="0"/>
</radialGradient>
<clipPath id="clip0_424_325">
<rect width="138.76" height="84.5322" rx="6.37979" transform="matrix(0.913545 -0.406737 0.659347 0.751838 0 56.439)" fill="white"/>
</clipPath>
</defs>
</svg>
