<svg width="183" height="120" viewBox="0 0 183 120" fill="none" xmlns="http://www.w3.org/2000/svg">
<g clip-path="url(#clip0_424_340)">
<rect width="138.768" height="84.5368" rx="6.38013" transform="matrix(0.913545 -0.406737 0.659347 0.751838 0 56.442)" fill="url(#paint0_linear_424_340)"/>
<g filter="url(#filter0_f_424_340)">
<path d="M100.914 100.878C65.7219 119.153 29.1655 121.776 23.9011 121.146L46.4112 146.813L217.133 70.8029L183.636 32.6069C180.035 50.7806 136.105 82.6041 100.914 100.878Z" fill="url(#paint1_linear_424_340)"/>
</g>
<path d="M24.2338 66.7062C23.6694 66.9575 23.097 67.0978 22.5168 67.1272C21.9366 67.1566 21.3874 67.0741 20.8692 66.8797C20.353 66.6762 19.9092 66.3628 19.538 65.9394L19.3987 65.7807L20.7705 65.1699L20.8788 65.2934C21.1676 65.6227 21.5389 65.8252 21.9929 65.9011C22.4417 65.9711 22.8948 65.9043 23.352 65.7007C23.8164 65.4939 24.0937 65.2437 24.1839 64.9501C24.2813 64.6533 24.2088 64.3667 23.9664 64.0904L23.8891 64.0022C23.7241 63.814 23.5328 63.6866 23.3154 63.6199C23.0979 63.5532 22.8695 63.5363 22.6302 63.5693C22.3858 63.5964 22.1421 63.664 21.8991 63.7722L20.3988 64.4402L19.3159 63.2054L20.8097 61.0686L20.686 60.9275L16.8921 62.6166L16.0104 61.6111L21.326 59.2445L22.6409 60.7439L21.246 62.7385L21.3697 62.8796L21.7662 62.7031C22.102 62.5535 22.4761 62.4647 22.8885 62.4364C23.3079 62.405 23.7244 62.4608 24.1379 62.6037C24.5462 62.7408 24.9128 62.9945 25.2376 63.365L25.3305 63.4708C25.6811 63.8707 25.87 64.273 25.8973 64.6779C25.9193 65.0768 25.7882 65.4541 25.5039 65.8096C25.2216 66.156 24.7982 66.4549 24.2338 66.7062ZM33.2168 62.535L32.1184 61.2826L28.4318 62.924L27.287 61.6186L26.7092 56.8477L29.1741 55.7503L32.6084 59.6663L33.8516 59.1128L34.7334 60.1183L33.4902 60.6718L34.5886 61.9242L33.2168 62.535ZM28.8575 61.3364L31.2366 60.2771L28.4366 57.0842L28.2437 57.1701L28.7337 61.1952L28.8575 61.3364ZM38.9916 60.1356C38.4057 60.3964 37.8237 60.537 37.2455 60.5573C36.6744 60.5745 36.1379 60.4782 35.636 60.2683C35.134 60.0585 34.7026 59.7477 34.3416 59.3361L34.2643 59.2479L35.6575 58.6276L35.7271 58.707C35.9849 59.001 36.3245 59.2014 36.746 59.3081C37.1694 59.4057 37.6168 59.3496 38.0884 59.1396C38.5599 58.9297 38.8305 58.6661 38.9001 58.349C38.9716 58.0228 38.8605 57.6921 38.5665 57.357L38.4892 57.2688C38.2004 56.9395 37.8423 56.7351 37.415 56.6556C36.9947 56.5729 36.5953 56.6158 36.2166 56.7844C36.0094 56.8767 35.8586 56.9765 35.7641 57.084C35.6696 57.1915 35.6104 57.2996 35.5866 57.4083C35.5627 57.517 35.5531 57.6194 35.5579 57.7154L33.8967 58.455L30.8646 54.9976L35.9873 52.7168L36.8846 53.7399L33.1336 55.4099L34.4563 56.9182L34.6492 56.8323C34.6536 56.724 34.6856 56.6076 34.7452 56.4829C34.8048 56.3583 34.9104 56.2295 35.0621 56.0966C35.2137 55.9637 35.4217 55.8384 35.6861 55.7207C36.129 55.5234 36.5998 55.4201 37.0982 55.4108C37.5967 55.4014 38.0845 55.499 38.5619 55.7034C39.0412 55.8988 39.4716 56.2141 39.8532 56.6492L39.946 56.755C40.3276 57.1902 40.5433 57.6174 40.5932 58.0367C40.6502 58.4528 40.5452 58.8429 40.2784 59.207C40.0064 59.5652 39.5775 59.8747 38.9916 60.1356ZM45.5987 57.0222L44.5003 55.7698L40.8137 57.4112L39.6689 56.1058L39.0911 51.3349L41.556 50.2375L44.9903 54.1535L46.2335 53.6L47.1153 54.6055L45.8721 55.159L46.9705 56.4115L45.5987 57.0222ZM41.2394 55.8236L43.6185 54.7643L40.8185 51.5715L40.6256 51.6574L41.1156 55.6825L41.2394 55.8236ZM53.891 53.5019C53.0051 53.8964 52.1188 54.013 51.2323 53.8517C50.3407 53.6846 49.5365 53.1923 48.8197 52.375L47.4583 50.8227C46.7622 50.0289 46.5016 49.3069 46.6764 48.6567C46.8462 48.0007 47.374 47.4754 48.2599 47.081C49.153 46.6834 50.047 46.5756 50.9418 46.7577C51.8386 46.9307 52.6351 47.4141 53.3313 48.2079L54.6926 49.7602C55.4094 50.5775 55.6777 51.3083 55.4977 51.9526C55.3196 52.5879 54.7841 53.1043 53.891 53.5019ZM53.0092 52.4965C53.5451 52.2579 53.8323 51.9624 53.8709 51.61C53.9167 51.2544 53.7437 50.8531 53.3518 50.4063L51.9131 48.7657C51.516 48.313 51.074 48.0356 50.5871 47.9335C50.1022 47.8223 49.6204 47.8733 49.1417 48.0865C48.6488 48.306 48.3686 48.5983 48.3014 48.9634C48.2414 49.3254 48.4021 49.7239 48.7837 50.159L50.2224 51.7995C50.6298 52.2641 51.0652 52.5567 51.5287 52.6773C51.9941 52.789 52.4876 52.7287 53.0092 52.4965ZM60.4116 50.5988C59.5257 50.9932 58.6395 51.1098 57.753 50.9485C56.8613 50.7814 56.0571 50.2892 55.3403 49.4718L53.979 47.9195C53.2828 47.1257 53.0222 46.4037 53.1971 45.7536C53.3668 45.0975 53.8946 44.5723 54.7806 44.1778C55.6737 43.7802 56.5676 43.6724 57.4624 43.8545C58.3592 44.0275 59.1557 44.5109 59.8519 45.3047L61.2132 46.8571C61.93 47.6744 62.1984 48.4052 62.0183 49.0495C61.8403 49.6847 61.3047 50.2011 60.4116 50.5988ZM59.5298 49.5933C60.0657 49.3547 60.3529 49.0592 60.3916 48.7068C60.4374 48.3512 60.2643 47.95 59.8724 47.5031L58.4337 45.8626C58.0366 45.4098 57.5946 45.1324 57.1078 45.0303C56.6228 44.9192 56.141 44.9702 55.6624 45.1833C55.1694 45.4028 54.8893 45.6951 54.8221 46.0602C54.762 46.4222 54.9227 46.8207 55.3043 47.2559L56.743 48.8964C57.1504 49.3609 57.5858 49.6535 58.0493 49.7742C58.5148 49.8858 59.0083 49.8255 59.5298 49.5933ZM66.9322 47.6956C66.0463 48.09 65.1601 48.2066 64.2736 48.0454C63.3819 47.8782 62.5777 47.386 61.8609 46.5687L60.4996 45.0164C59.8034 44.2226 59.5428 43.5006 59.7177 42.8504C59.8874 42.1943 60.4153 41.6691 61.3012 41.2746C62.1943 40.877 63.0882 40.7692 63.9831 40.9513C64.8799 41.1244 65.6764 41.6078 66.3725 42.4016L67.7338 43.9539C68.4506 44.7712 68.719 45.502 68.5389 46.1463C68.3609 46.7815 67.8253 47.298 66.9322 47.6956ZM66.0505 46.6901C66.5863 46.4515 66.8735 46.156 66.9122 45.8036C66.958 45.448 66.7849 45.0468 66.393 44.5999L64.9543 42.9594C64.5572 42.5066 64.1153 42.2292 63.6284 42.1271C63.1435 42.016 62.6617 42.067 62.183 42.2801C61.69 42.4996 61.4099 42.7919 61.3427 43.1571C61.2826 43.519 61.4434 43.9176 61.8249 44.3527L63.2636 45.9932C63.671 46.4577 64.1064 46.7503 64.5699 46.871C65.0354 46.9826 65.5289 46.9223 66.0505 46.6901ZM71.5045 43.7958L70.7156 42.8961L71.7015 42.4572L71.2838 41.9809L70.2979 42.4199L69.5089 41.5202L70.4949 41.0812L68.1434 38.4L71.2728 37.0067C71.7372 36.7999 72.2063 36.6892 72.6802 36.6744C73.1612 36.6565 73.6177 36.7353 74.0498 36.9108C74.4768 37.0805 74.8449 37.3417 75.1543 37.6945L75.2626 37.818C75.572 38.1708 75.7366 38.5227 75.7563 38.8736C75.7831 39.2214 75.6798 39.5454 75.4463 39.8456C75.2077 40.1399 74.8633 40.3872 74.4132 40.5876L72.6985 41.351L73.1162 41.8273L75.4953 40.768L76.2843 41.6677L73.9051 42.727L74.9725 43.9441L73.5579 44.574L72.4905 43.3568L71.5045 43.7958ZM71.9095 40.4514L73.4849 39.75C73.8064 39.6068 74.0079 39.4231 74.0893 39.1988C74.1656 38.9686 74.1006 38.7359 73.8944 38.5007L73.817 38.4125C73.6056 38.1715 73.3406 38.0278 73.0219 37.9817C72.7104 37.9323 72.3903 37.9808 72.0617 38.1271L70.4863 38.8285L71.9095 40.4514Z" fill="white"/>
<path d="M51.2063 122.798L38.3392 108.126L52.4466 101.845L65.3137 116.517L61.5434 118.196L50.947 106.113L44.3802 109.037L54.9766 121.12L51.2063 122.798ZM78.5405 100.399C79.5376 101.537 80.2699 102.649 80.7373 103.736C81.2093 104.802 81.3901 105.826 81.2797 106.809C81.1859 107.784 80.7542 108.69 79.9846 109.528C79.2316 110.359 78.131 111.096 76.6829 111.741C75.2347 112.386 73.8134 112.771 72.419 112.897C71.0293 113.001 69.6966 112.88 68.4208 112.534C67.1496 112.167 65.9307 111.595 64.7642 110.819C63.6143 110.036 62.5408 109.075 61.5436 107.938C60.2101 106.418 59.3503 104.962 58.9644 103.572C58.5952 102.175 58.7645 100.89 59.4723 99.7174C60.1847 98.524 61.5147 97.4937 63.4623 96.6266C65.3932 95.7669 67.2592 95.3742 69.0603 95.4485C70.8494 95.5091 72.5421 95.9746 74.1385 96.8448C75.7396 97.694 77.2069 98.8788 78.5405 100.399ZM65.5317 106.191C66.4328 107.219 67.3658 108.032 68.3308 108.631C69.2959 109.23 70.2855 109.58 71.2998 109.681C72.314 109.781 73.3455 109.598 74.3942 109.132C75.4762 108.65 76.1675 108.066 76.4683 107.379C76.7857 106.686 76.7699 105.902 76.4208 105.029C76.0883 104.149 75.4715 103.195 74.5704 102.167C73.2128 100.619 71.8 99.5623 70.332 98.9968C68.864 98.4313 67.331 98.5043 65.7329 99.2158C64.6676 99.6901 63.9762 100.274 63.6588 100.968C63.3414 101.662 63.3489 102.449 63.6814 103.329C64.0139 104.21 64.6307 105.164 65.5317 106.191ZM86.08 86.8708L88.3326 89.4395L80.842 92.7745L91.4564 104.878L87.6861 106.557L74.819 91.8845L86.08 86.8708ZM109.839 96.6933L105.477 93.7781L98.9855 96.6684L100.751 100.74L96.6808 102.552L90.0518 85.0168L94.671 82.9601L113.909 94.8813L109.839 96.6933ZM97.9999 88.7354C97.7125 88.5396 97.3459 88.2933 96.9004 87.9964C96.4549 87.6995 96.0033 87.3957 95.5458 87.0851C95.0882 86.7745 94.6977 86.5008 94.3742 86.2638C94.5313 86.5749 94.7151 86.9692 94.9257 87.4469C95.1409 87.9035 95.3442 88.3464 95.5354 88.7755C95.7312 89.1836 95.8619 89.4778 95.9275 89.6581L97.6456 93.6363L102.29 91.5685L97.9999 88.7354ZM137.59 84.3377L115.168 94.3207L102.301 79.6486L106.072 77.97L116.668 90.0528L122.211 87.5849L111.615 75.502L115.41 73.8123L126.006 85.8951L131.549 83.4272L120.953 71.3443L124.723 69.6657L137.59 84.3377ZM151.351 78.211L141.089 82.78L128.222 68.1079L138.484 63.5389L140.719 66.087L134.227 68.9774L137.056 72.2036L143.099 69.5133L145.333 72.0614L139.291 74.7517L142.607 78.5327L149.099 75.6423L151.351 78.211ZM168.669 70.5006L164.899 72.1793L159.348 65.8502L152.282 68.9962L157.833 75.3254L154.062 77.004L141.195 62.3319L144.965 60.6533L150.011 66.4071L157.078 63.261L152.032 57.5072L155.802 55.8286L168.669 70.5006ZM181.884 54.3879C182.881 55.525 183.614 56.6371 184.081 57.7243C184.553 58.7904 184.734 59.8147 184.623 60.7972C184.53 61.7723 184.098 62.6789 183.328 63.5168C182.575 64.3473 181.475 65.0849 180.027 65.7297C178.578 66.3745 177.157 66.7596 175.763 66.8852C174.373 66.9896 173.04 66.8687 171.764 66.5224C170.493 66.155 169.274 65.5833 168.108 64.8074C166.958 64.024 165.884 63.0639 164.887 61.9268C163.554 60.4062 162.694 58.9508 162.308 57.5606C161.939 56.1631 162.108 54.8781 162.816 53.7058C163.528 52.5124 164.858 51.4821 166.806 50.615C168.737 49.7553 170.603 49.3626 172.404 49.4369C174.193 49.4976 175.886 49.963 177.482 50.8333C179.083 51.6824 180.551 52.8673 181.884 54.3879ZM168.875 60.1798C169.776 61.2072 170.709 62.0204 171.675 62.6194C172.64 63.2183 173.629 63.5682 174.643 63.6691C175.658 63.7699 176.689 63.5869 177.738 63.12C178.82 62.6382 179.511 62.0542 179.812 61.3679C180.129 60.6742 180.114 59.8907 179.764 59.0175C179.432 58.137 178.815 57.1829 177.914 56.1555C176.556 54.6074 175.144 53.5507 173.676 52.9852C172.208 52.4197 170.675 52.4927 169.077 53.2042C168.011 53.6785 167.32 54.2625 167.002 54.9563C166.685 55.65 166.693 56.4371 167.025 57.3177C167.358 58.1983 167.974 59.1523 168.875 60.1798Z" fill="white"/>
<g opacity="0.4" filter="url(#filter1_d_424_340)">
<path d="M97.6825 27.5606L94.5537 23.9929L95.2226 23.6952L98.3513 27.2628L97.6825 27.5606ZM99.7317 26.6482L96.5002 24.5933L97.1752 24.2927L99.8503 26.0568L99.9494 26.0127L98.8968 23.5262L99.5718 23.2257L100.747 26.196L99.7317 26.6482ZM103.072 25.2602C102.853 25.3576 102.63 25.4144 102.403 25.4304C102.18 25.4446 101.965 25.4152 101.758 25.3423C101.554 25.2675 101.378 25.1451 101.229 24.9752C101.077 24.8019 101.001 24.6372 101.002 24.4809C101.004 24.3195 101.066 24.1712 101.189 24.0363C101.316 23.8995 101.491 23.7814 101.714 23.6822L102.643 23.2686L102.5 23.1055C102.372 22.9594 102.215 22.8661 102.03 22.8255C101.846 22.785 101.642 22.8143 101.419 22.9136C101.2 23.011 101.07 23.1279 101.029 23.2643C100.988 23.4008 101.008 23.5452 101.09 23.6976L100.357 23.8043C100.288 23.6464 100.259 23.4891 100.271 23.3326C100.284 23.1709 100.351 23.0156 100.474 22.8667C100.596 22.7179 100.785 22.5865 101.041 22.4725C101.437 22.2961 101.822 22.2405 102.195 22.3059C102.568 22.3713 102.888 22.5569 103.157 22.8627L104.064 23.8973C104.153 23.9993 104.256 24.0245 104.371 23.973L104.632 23.8572L105.016 24.2955L104.539 24.5078C104.395 24.5722 104.25 24.594 104.106 24.5733C103.961 24.5525 103.843 24.4895 103.75 24.3842L103.737 24.3689L103.644 24.4102C103.656 24.4759 103.658 24.5574 103.652 24.6548C103.645 24.7522 103.601 24.8548 103.517 24.9628C103.431 25.0673 103.283 25.1665 103.072 25.2602ZM102.785 24.7856C103.041 24.6717 103.195 24.5203 103.248 24.3315C103.297 24.1394 103.23 23.938 103.045 23.7273L103 23.6763L102.109 24.0734C101.939 24.1487 101.83 24.24 101.78 24.3471C101.728 24.4508 101.752 24.5604 101.854 24.6759C101.955 24.7915 102.089 24.8593 102.256 24.8795C102.423 24.8996 102.599 24.8684 102.785 24.7856ZM105.388 24.1297L103.185 21.617L103.81 21.3386L104.141 21.7157L104.24 21.6716C104.209 21.5439 104.228 21.4028 104.3 21.2483C104.371 21.0938 104.553 20.9513 104.846 20.8208C105.077 20.7179 105.319 20.6693 105.571 20.6752C105.827 20.6793 106.075 20.7365 106.315 20.8469C106.553 20.9538 106.767 21.116 106.957 21.3335L108.28 22.8421L107.643 23.1261L106.355 21.6582C106.165 21.4408 105.959 21.3105 105.737 21.2674C105.513 21.2209 105.285 21.2491 105.053 21.352C104.789 21.4697 104.639 21.6357 104.603 21.8501C104.572 22.0626 104.675 22.3048 104.913 22.5766L106.026 23.8457L105.388 24.1297ZM110.263 21.9594L107.134 18.3918L107.803 18.094L110.932 21.6616L110.263 21.9594ZM112.312 21.047L109.081 18.9921L109.756 18.6916L112.431 20.4557L112.53 20.4115L111.477 17.9251L112.152 17.6245L113.328 20.5949L112.312 21.047ZM115.652 19.6591C115.434 19.7565 115.211 19.8132 114.984 19.8293C114.761 19.8435 114.545 19.8141 114.338 19.7411C114.135 19.6663 113.958 19.544 113.809 19.3741C113.657 19.2008 113.582 19.036 113.583 18.8798C113.585 18.7183 113.647 18.5701 113.77 18.4351C113.896 18.2983 114.071 18.1803 114.294 18.081L115.223 17.6674L115.08 17.5044C114.952 17.3583 114.796 17.2649 114.611 17.2244C114.426 17.1838 114.222 17.2132 113.999 17.3124C113.78 17.4099 113.65 17.5268 113.609 17.6632C113.568 17.7996 113.589 17.944 113.671 18.0965L112.938 18.2032C112.868 18.0452 112.839 17.888 112.851 17.7315C112.864 17.5697 112.932 17.4144 113.054 17.2656C113.176 17.1167 113.365 16.9853 113.621 16.8714C114.017 16.6949 114.402 16.6394 114.775 16.7048C115.148 16.7702 115.469 16.9558 115.737 17.2616L116.644 18.2962C116.734 18.3981 116.836 18.4233 116.952 18.3719L117.212 18.2561L117.596 18.6944L117.119 18.9067C116.975 18.971 116.83 18.9928 116.686 18.9721C116.542 18.9514 116.423 18.8884 116.331 18.783L116.317 18.7677L116.224 18.8091C116.236 18.8748 116.239 18.9563 116.232 19.0536C116.226 19.151 116.181 19.2537 116.098 19.3616C116.011 19.4662 115.863 19.5653 115.652 19.6591ZM115.365 19.1845C115.621 19.0705 115.776 18.9192 115.828 18.7304C115.878 18.5382 115.81 18.3368 115.626 18.1261L115.581 18.0752L114.689 18.4722C114.52 18.5476 114.41 18.6388 114.361 18.7459C114.308 18.8497 114.333 18.9593 114.434 19.0748C114.535 19.1903 114.669 19.2582 114.836 19.2783C115.003 19.2985 115.18 19.2672 115.365 19.1845ZM117.969 18.5285L115.765 16.0159L116.391 15.7374L116.721 16.1146L116.821 16.0704C116.789 15.9428 116.809 15.8017 116.88 15.6472C116.951 15.4927 117.133 15.3501 117.426 15.2196C117.658 15.1167 117.899 15.0682 118.151 15.0741C118.407 15.0782 118.656 15.1354 118.896 15.2457C119.133 15.3526 119.347 15.5148 119.538 15.7323L120.861 17.2409L120.223 17.5249L118.936 16.0571C118.745 15.8396 118.539 15.7093 118.317 15.6662C118.093 15.6197 117.865 15.6479 117.634 15.7509C117.37 15.8685 117.22 16.0345 117.184 16.2489C117.152 16.4615 117.255 16.7037 117.494 16.9755L118.607 18.2445L117.969 18.5285ZM123.024 16.3769C122.719 16.5129 122.402 16.5833 122.073 16.588C121.745 16.5874 121.428 16.5206 121.122 16.3876C120.816 16.2546 120.547 16.0556 120.314 15.7906L120.247 15.7141C120.015 15.4491 119.883 15.1911 119.853 14.9402C119.819 14.6858 119.874 14.4536 120.017 14.2435C120.164 14.0316 120.39 13.8576 120.696 13.7216C121.001 13.5855 121.32 13.5169 121.652 13.5156C121.983 13.5143 122.302 13.5802 122.608 13.7132C122.912 13.8428 123.179 14.0401 123.412 14.3052L123.479 14.3816C123.711 14.6466 123.844 14.9063 123.878 15.1606C123.911 15.415 123.855 15.6481 123.708 15.8601C123.558 16.0686 123.33 16.2409 123.024 16.3769ZM122.613 15.908C122.894 15.783 123.057 15.6089 123.102 15.3856C123.148 15.157 123.057 14.9119 122.827 14.6503L122.787 14.6045C122.558 14.3428 122.292 14.1776 121.991 14.1087C121.686 14.0364 121.392 14.0636 121.107 14.1905C120.83 14.3136 120.669 14.4895 120.622 14.718C120.577 14.9413 120.669 15.1838 120.898 15.4454L120.939 15.4913C121.168 15.7529 121.435 15.9199 121.74 15.9922C122.045 16.0592 122.336 16.0312 122.613 15.908ZM125.691 15.0906L122.459 13.0356L123.134 12.7351L125.809 14.4992L125.908 14.4551L124.856 11.9686L125.531 11.668L126.706 14.6384L125.691 15.0906Z" fill="white"/>
</g>
<line y1="-0.488801" x2="68.4321" y2="-0.488801" transform="matrix(0.913545 -0.406737 0.659347 0.751838 16.5239 66.6202)" stroke="#F7E794" stroke-width="0.977601"/>
<line y1="-0.488801" x2="68.4321" y2="-0.488801" transform="matrix(0.913545 -0.406737 0.659347 0.751838 16.5239 66.6202)" stroke="#F7E794" stroke-width="0.977601"/>
<line y1="-0.488801" x2="68.4321" y2="-0.488801" transform="matrix(0.913545 -0.406737 0.659347 0.751838 15.2347 65.1502)" stroke="#F7E794" stroke-width="0.977601"/>
<line y1="-0.488801" x2="68.4321" y2="-0.488801" transform="matrix(0.913545 -0.406737 0.659347 0.751838 15.2347 65.1502)" stroke="#F7E794" stroke-width="0.977601"/>
<line y1="-0.488801" x2="68.4321" y2="-0.488801" transform="matrix(0.913545 -0.406737 0.659347 0.751838 15.8793 65.8852)" stroke="white" stroke-width="0.977601"/>
</g>
<rect x="0.313602" y="0.0688061" width="138.369" height="84.138" rx="6.18076" transform="matrix(0.913545 -0.406737 0.659347 0.751838 -0.0182548 56.5866)" stroke="url(#paint2_radial_424_340)" stroke-width="0.398758"/>
<rect x="0.313602" y="0.0688061" width="138.369" height="84.138" rx="6.18076" transform="matrix(0.913545 -0.406737 0.659347 0.751838 -0.0182548 56.5866)" stroke="url(#paint3_radial_424_340)" stroke-width="0.398758"/>
<rect x="0.313602" y="0.0688061" width="138.369" height="84.138" rx="6.18076" transform="matrix(0.913545 -0.406737 0.659347 0.751838 -0.0182548 56.5866)" stroke="url(#paint4_radial_424_340)" stroke-width="0.398758"/>
<defs>
<filter id="filter0_f_424_340" x="-4.80947" y="3.89633" width="250.653" height="171.628" filterUnits="userSpaceOnUse" color-interpolation-filters="sRGB">
<feFlood flood-opacity="0" result="BackgroundImageFix"/>
<feBlend mode="normal" in="SourceGraphic" in2="BackgroundImageFix" result="shape"/>
<feGaussianBlur stdDeviation="14.3553" result="effect1_foregroundBlur_424_340"/>
</filter>
<filter id="filter1_d_424_340" x="94.155" y="10.613" width="34.0406" height="18.2151" filterUnits="userSpaceOnUse" color-interpolation-filters="sRGB">
<feFlood flood-opacity="0" result="BackgroundImageFix"/>
<feColorMatrix in="SourceAlpha" type="matrix" values="0 0 0 0 0 0 0 0 0 0 0 0 0 0 0 0 0 0 127 0" result="hardAlpha"/>
<feOffset dy="0.797517"/>
<feGaussianBlur stdDeviation="0.199379"/>
<feComposite in2="hardAlpha" operator="out"/>
<feColorMatrix type="matrix" values="0 0 0 0 0 0 0 0 0 0 0 0 0 0 0 0 0 0 0.25 0"/>
<feBlend mode="normal" in2="BackgroundImageFix" result="effect1_dropShadow_424_340"/>
<feBlend mode="normal" in="SourceGraphic" in2="effect1_dropShadow_424_340" result="shape"/>
</filter>
<linearGradient id="paint0_linear_424_340" x1="69.384" y1="0" x2="69.384" y2="84.5368" gradientUnits="userSpaceOnUse">
<stop stop-color="#FBEE88"/>
<stop offset="1" stop-color="#E0B330"/>
</linearGradient>
<linearGradient id="paint1_linear_424_340" x1="98.2751" y1="70.6121" x2="118.009" y2="114.936" gradientUnits="userSpaceOnUse">
<stop stop-color="#E0B330"/>
<stop offset="0.511012" stop-color="#FBEE88"/>
<stop offset="1" stop-color="#E0B330"/>
</linearGradient>
<radialGradient id="paint2_radial_424_340" cx="0" cy="0" r="1" gradientUnits="userSpaceOnUse" gradientTransform="translate(168.32 31.947) rotate(174.425) scale(227.646 57.6884)">
<stop stop-color="white"/>
<stop offset="1" stop-color="white" stop-opacity="0"/>
</radialGradient>
<radialGradient id="paint3_radial_424_340" cx="0" cy="0" r="1" gradientUnits="userSpaceOnUse" gradientTransform="translate(-12.4206 -49.1493) rotate(30.6396) scale(133.409 80.5988)">
<stop stop-color="white"/>
<stop offset="1" stop-color="white" stop-opacity="0"/>
</radialGradient>
<radialGradient id="paint4_radial_424_340" cx="0" cy="0" r="1" gradientUnits="userSpaceOnUse" gradientTransform="translate(-55.6785 114.19) rotate(-5.33944) scale(170.775 43.0899)">
<stop stop-color="white"/>
<stop offset="1" stop-color="white" stop-opacity="0"/>
</radialGradient>
<clipPath id="clip0_424_340">
<rect width="138.768" height="84.5368" rx="6.38013" transform="matrix(0.913545 -0.406737 0.659347 0.751838 0 56.442)" fill="white"/>
</clipPath>
</defs>
</svg>
